<?xml version="1.0" encoding="utf-8"?>
<!-- Generator: Adobe Illustrator 24.2.3, SVG Export Plug-In . SVG Version: 6.00 Build 0)  -->
<svg version="1.1" id="Layer_1" xmlns="http://www.w3.org/2000/svg" xmlns:xlink="http://www.w3.org/1999/xlink" x="0px" y="0px"
	 viewBox="0 0 1000 1000" style="enable-background:new 0 0 1000 1000;" xml:space="preserve">
<g>
	<g>
		<g>
			<path d="M439.2,475.6c-0.9-1.8-2.1-3.5-3.5-4.9c-1.2-1.2-2.6-2.8-4.2-3.2c4,5.2,9.1,15.2,1.7,29.4c-5.5,10.6-20.4,16.4-26.9,12.9
				c-6.5-3.5-5.6-14.1,0.7-24.4c3.1-5,7.3-9.6,12-12.1c1.9-1,3.8-1.6,5.5-1.6c2.4-0.1,4.9,0.8,5.5,2.8c0.6,1.6,0,4.9-2.4,5.6
				c-2.9,0.9-4.6,3.3-5.3,4.2c-0.7,0.9-4.3,7.3,0.8,9.2c5.1,2,10.9-7.1,9.7-14.1c-0.3-2-0.8-3.8-1.6-5.3c-0.9-1.6-2.3-2.7-3.8-3.4
				c-2.7-1.3-6.1-2-9.5-1.6c-4,0.4-8.5,2.3-12.4,5.6c-2.2,1.9-4.2,4.2-5.8,6.9c-6.5,10.6-3.9,23.5,6.1,29c2.2,1.2,4.6,2,7.2,2.4
				c-2.4,1.1-6.2,2.9-6.2,2.9l-5.2,2.9c-0.6,0.3-1.1,0.7-1.5,0.9c-0.3,0.2-0.6,0.4-0.8,0.6c-0.2,0.2-0.3,0.3-0.3,0.5
				s-0.1,0.3-0.1,0.5c0,0.7,0.4,1,1.2,1c0.5,0,0.8-0.1,1.2-0.4c0.3-0.3,0.7-0.6,1-0.9s0.7-0.7,1.2-0.9c0.4-0.3,1-0.4,1.7-0.4
				c1,0,2,0.3,3.1,0.9c1,0.6,2.1,1.2,3.3,1.9c1.1,0.7,2.3,1.3,3.6,1.9c1.3,0.6,2.6,0.9,4.2,0.9c1,0,1.9-0.1,2.8-0.4
				c0.9-0.3,1.6-0.7,2.3-1.2c0.7-0.5,1.1-1.1,1.5-1.9c0.3-0.7,0.6-1.5,0.6-2.3c0-0.3,0-0.6,0-0.9c0-0.3,0-0.6-0.1-0.8h-1
				c-0.4,1.3-1,2.3-1.6,2.8c-0.7,0.5-1.6,0.8-2.9,0.8c-1.1,0-2.2-0.2-3.1-0.5c-1-0.3-2-0.7-3-1.1c-1-0.4-2-0.7-3.1-1.1
				c-1-0.3-2.2-0.5-3.4-0.5c-0.2,0-0.5,0-0.7,0c-0.3,0-0.5,0-0.7,0v-0.2c0.6-0.4,1.2-0.8,1.9-1.1c0.7-0.3,1.4-0.6,2.1-0.9
				c0.6-0.2,4.6-2,6.1-2.7c2.9,0.1,5.8-0.3,8.5-1.2c10-3.2,15.9-13.1,16.6-23.2c0-0.6,0.1-1.2,0.1-1.9
				C441.9,483.1,441,479.1,439.2,475.6"/>
			<path d="M465.9,511.2c0,0.3-0.1,0.5-0.3,0.5c-2.6,0.3-4.4,0.8-5.4,1.5c-0.2,0.2-0.4,0.2-0.6,0.2c-0.3,0-0.4-0.1-0.4-0.3l0.2-2.7
				c-2.2,1.9-4.1,2.9-5.8,2.9c-2,0-3.5-0.6-4.6-1.7c-1.1-1.1-1.6-2.6-1.6-4.6l0-8.1c0-1.3-0.2-2.1-0.5-2.6c-0.3-0.4-1-0.7-2-0.7
				c-0.2,0-0.4,0-0.6,0c-0.2,0-0.3-0.2-0.3-0.6c0-0.4,0.1-0.7,0.3-0.7c1.7,0,3.9-0.3,6.6-1c0.3,0,0.4,0.2,0.4,0.6l0,11.9
				c0,1.6,0.3,2.8,0.9,3.6c0.6,0.7,1.6,1.1,2.9,1.1c0.9,0,1.6-0.1,2.3-0.5c0.7-0.3,1.3-0.9,2.1-1.7l0-9.6c0-1.3-0.2-2.1-0.5-2.6
				c-0.3-0.4-1-0.7-2-0.7c-0.2,0-0.4,0-0.6,0c-0.2,0-0.3-0.2-0.3-0.6c0-0.4,0.1-0.7,0.3-0.7c1.7,0,3.9-0.3,6.6-1
				c0.3,0,0.4,0.2,0.4,0.6l-0.1,13.8c0,1,0.1,1.6,0.4,2c0.3,0.3,1,0.6,2,0.7C465.7,510.6,465.9,510.8,465.9,511.2z"/>
			<path d="M485.1,500.4c0,0.4-0.3,0.6-0.8,0.6l-11.9,0c-0.1,0.8-0.1,1.6-0.1,2.4c0,2.3,0.5,4.1,1.6,5.4c1.1,1.3,2.6,1.9,4.7,1.9
				c1,0,2-0.3,3.1-0.8c1-0.6,1.9-1.3,2.5-2.1l0.1,0c0.1,0,0.3,0.1,0.4,0.3c0.1,0.2,0.2,0.3,0.2,0.6c0,0.3-0.5,1-1.4,1.9
				c-0.9,1-2,1.7-3,2.2c-1.1,0.5-2.2,0.7-3.4,0.7c-2.6,0-4.8-1-6.5-2.9c-1.8-1.9-2.6-4.2-2.6-7c0-2.8,0.9-5.2,2.6-7.2
				c1.7-2,3.9-2.9,6.6-2.9c2.3,0,4.1,0.7,5.6,2.2C484.3,497,485.1,498.6,485.1,500.4z M481.1,498.5c0-1.1-0.3-2-1.1-2.7
				c-0.7-0.7-1.7-1.1-2.9-1.1c-1.1,0-2.1,0.5-2.9,1.4c-0.8,0.9-1.4,2.2-1.7,3.6l6-0.1c0.9,0,1.6-0.1,2-0.3S481.1,498.9,481.1,498.5z
				"/>
			<path d="M508.6,503.4c0,2.6-1,5-2.9,7s-4.1,3-6.5,3c-1.4,0-2.7-0.3-4-0.9c-0.9-0.4-1.6-0.6-2.3-0.6c-1.1,0-1.8,0.4-2.2,1.4
				c-0.1,0.2-0.3,0.3-0.6,0.3c-0.4,0-0.6-0.1-0.6-0.3c0.1-1.2,0.2-2.7,0.2-4.4l0.1-21.1c0-1.2-0.1-2-0.4-2.3s-1-0.6-2-0.7
				c-0.2,0-0.3-0.2-0.3-0.5c0-0.4,0.1-0.6,0.3-0.6c2.6-0.7,4.4-1.4,5.5-2.3c0.2-0.2,0.4-0.3,0.5-0.3c0.4,0,0.6,0.1,0.6,0.3
				c-0.3,3.2-0.4,5.7-0.4,7.6l0,6.5c1.4-1.3,3-2,5-2c2.9,0,5.3,0.9,7.2,2.7C507.8,497.9,508.7,500.4,508.6,503.4z M504.3,503.6
				c0-2.6-0.5-4.7-1.6-6.2c-1-1.5-2.5-2.3-4.4-2.3c-1,0-2,0.4-3,1.1c-1,0.8-1.5,1.5-1.5,2.3l0,10c0,0.8,0.6,1.6,1.7,2.3
				s2.3,1.2,3.3,1.2c1.7,0,3.1-0.7,4.1-2.3C503.8,508.2,504.3,506.1,504.3,503.6z"/>
			<path d="M526.5,495.7c0,0.6-0.2,1.1-0.5,1.5c-0.3,0.4-0.8,0.6-1.3,0.6c-0.7,0-1.3-0.2-1.9-0.7c-0.5-0.3-0.9-0.5-1.3-0.5
				c-1,0-1.9,0.5-2.9,1.6l0,9.8c0,1.3,0.2,2.1,0.7,2.6s1.3,0.9,2.8,1c0.2,0,0.3,0.2,0.3,0.6c0,0.4-0.1,0.6-0.3,0.6
				c-0.6,0-1.4,0-2.5-0.1c-1.2-0.1-2.1-0.1-2.9-0.1c-0.7,0-1.6,0-2.6,0.1c-0.9,0.1-1.7,0.1-2.3,0.1c-0.2,0-0.3-0.2-0.3-0.6
				c0-0.3,0.1-0.6,0.3-0.6c1.3-0.2,2.1-0.4,2.4-0.9c0.3-0.4,0.5-1.3,0.6-2.8l0-8c0-1.2-0.1-1.9-0.4-2.3c-0.3-0.3-1-0.6-2-0.7
				c-0.2,0-0.3-0.2-0.3-0.6c0-0.3,0.1-0.5,0.3-0.5c1.4-0.3,2.6-0.7,3.6-1.2c0.9-0.4,1.5-0.8,1.8-1.1c0.2-0.2,0.3-0.3,0.5-0.3
				c0.4,0,0.6,0.1,0.6,0.3l-0.2,2.7c1.2-1.1,2.2-1.8,3-2.3s1.6-0.7,2.5-0.7c0.7,0,1.2,0.2,1.7,0.7
				C526.3,494.6,526.5,495.2,526.5,495.7z"/>
			<path d="M541.9,513.5c-0.8,0-1.5-0.2-2.1-0.6c-0.6-0.4-1-1-1.2-1.6c-1.6,1.6-3.6,2.4-6.1,2.3c-1.3,0-2.3-0.4-3.2-1.2
				c-0.8-0.8-1.2-1.8-1.2-3c0-2.9,3.6-5.3,10.6-7.2l0.1-3.4v-0.1c0-1-0.3-1.9-0.7-2.5c-0.5-0.6-1.2-0.9-2-0.9s-1.6,0.2-2.2,0.6
				s-0.9,0.9-0.9,1.6c0,0.9-0.3,1.6-0.7,2.2c-0.5,0.5-1.1,0.8-1.9,0.8c-0.5,0-0.8-0.1-1.1-0.4c-0.3-0.3-0.4-0.7-0.4-1.1
				c0-1.1,1-2.3,3-3.5c2-1.2,3.9-1.8,5.6-1.8c1.6,0,2.8,0.5,3.8,1.4c1,0.9,1.4,2.2,1.4,3.7v0.3l-0.4,9.8v0.1c0,1.5,0.5,2.3,1.5,2.3
				c0.5,0,1-0.3,1.7-0.9l0.2,0c0.1,0,0.2,0.1,0.3,0.2c0.1,0.2,0.1,0.3,0.1,0.5c0,0.4-0.4,0.9-1.3,1.5
				C543.8,513.2,542.9,513.5,541.9,513.5z M538.6,503.7c-4.2,1-6.3,2.5-6.3,4.7c0,2,0.8,3.1,2.3,3.1c0.8,0,1.5-0.2,2.3-0.6
				c0.7-0.4,1.3-0.9,1.5-1.4L538.6,503.7z"/>
			<path d="M564.1,497.2c0,1.2-0.6,1.8-1.8,1.8c-0.5,0-0.9-0.1-1.3-0.3c-0.3-0.2-0.7-0.7-1-1.4c-0.4-0.9-0.8-1.4-1.3-1.7
				c-0.4-0.3-1-0.4-1.7-0.4c-1.7,0-3.1,0.7-4,2.2c-0.9,1.4-1.4,3.6-1.4,6.3c0,2.3,0.6,4.2,1.7,5.6c1.1,1.4,2.7,2.2,4.6,2.2
				c2.2,0,3.9-0.7,5.2-2l0.1,0c0.1,0,0.3,0.1,0.4,0.3c0.1,0.2,0.2,0.3,0.2,0.6c0,0.3-0.4,0.8-1.3,1.5c-0.9,0.7-1.8,1.2-2.8,1.6
				c-1,0.3-2.1,0.5-3.2,0.5c-2.6,0-4.8-1-6.6-2.9c-1.8-1.9-2.7-4.3-2.7-7.2c0-2.9,1-5.2,2.9-7.1c2-1.9,4.2-2.8,6.9-2.8
				c2,0,3.6,0.3,4.9,1C563.4,495.4,564.1,496.3,564.1,497.2z"/>
			<path d="M589.6,512.6c0,0.4-0.1,0.6-0.3,0.6c-0.6,0-1.3,0-2.1-0.1c-0.9-0.1-1.7-0.1-2.4-0.1c-0.7,0-1.6,0-2.5,0.1
				c-0.9,0.1-1.6,0.1-2.2,0.1c-0.2,0-0.3-0.2-0.3-0.6c0-0.3,0.1-0.6,0.3-0.6c1-0.1,1.6-0.4,2-0.8c0.3-0.4,0.5-1.4,0.5-2.8l0-7.2
				c0-3.1-1.4-4.7-4.2-4.7c-1.8,0-3.3,0.7-4.6,2.1l0,9.8c0,1.3,0.2,2.2,0.6,2.7c0.4,0.5,1.1,0.8,2.2,1c0.2,0,0.3,0.2,0.3,0.6
				c0,0.4-0.1,0.6-0.3,0.6c-0.6,0-1.3,0-2.3-0.1c-1.1-0.1-2-0.1-2.6-0.1c-0.7,0-1.6,0-2.5,0.1c-0.8,0.1-1.5,0.1-2.1,0.1
				c-0.2,0-0.3-0.2-0.3-0.6c0-0.3,0.1-0.6,0.3-0.6c1.2-0.1,2-0.4,2.4-0.8c0.3-0.4,0.6-1.4,0.6-2.8l0.1-20.1c0-1.2-0.1-2-0.4-2.3
				c-0.3-0.3-0.9-0.6-2-0.7c-0.2,0-0.3-0.2-0.3-0.6c0-0.4,0.1-0.6,0.3-0.6c2.5-0.6,4.3-1.3,5.5-2.3c0.2-0.2,0.4-0.3,0.5-0.3
				c0.4,0,0.6,0.1,0.6,0.3c-0.3,2.4-0.4,4.9-0.4,7.5l0,7.3c2.1-2,4.1-2.9,6.2-2.9s3.7,0.6,4.9,1.7c1.2,1.1,1.8,2.6,1.7,4.6l0,8.3
				c0,1.4,0.2,2.3,0.5,2.8c0.3,0.4,1.2,0.7,2.4,0.9C589.5,512.1,589.6,512.3,589.6,512.6z"/>
			<path d="M611.5,504.1c0,2.9-1,5.2-2.9,7.1c-1.9,1.9-4.3,2.8-7.3,2.7c-3,0-5.4-1-7.3-2.8c-1.9-1.9-2.8-4.2-2.8-7.1
				c0-2.9,1-5.3,2.9-7.2c1.9-1.9,4.3-2.9,7.3-2.9c2.9,0,5.4,1,7.2,2.9C610.6,498.8,611.5,501.2,611.5,504.1z M607.1,504.1
				c0-2.6-0.5-4.8-1.5-6.3c-1-1.6-2.4-2.4-4.2-2.4s-3.2,0.8-4.2,2.3c-1,1.6-1.6,3.7-1.6,6.3c0,2.6,0.5,4.7,1.5,6.2
				c1,1.6,2.4,2.3,4.2,2.3c1.8,0,3.2-0.7,4.2-2.3C606.6,508.8,607.1,506.7,607.1,504.1z"/>
		</g>
		<g>
			<g>
				<path d="M438.9,524.2v2.9h2.8v0.4h-2.8v2.9h3.1v0.4h-3.6l0-7h3.6v0.4L438.9,524.2z"/>
				<path d="M447.1,530.7c-0.3-0.2-0.6-0.4-0.8-0.7s-0.3-0.6-0.3-0.9h0.5c0,0.3,0.2,0.7,0.5,1s0.7,0.4,1.3,0.4c0.3,0,0.7,0,0.9-0.2
					c0.3-0.1,0.4-0.3,0.6-0.5c0.1-0.2,0.2-0.5,0.2-0.7c0-0.3-0.1-0.6-0.3-0.8c-0.2-0.2-0.3-0.3-0.6-0.4c-0.3-0.1-0.6-0.2-1-0.3
					c-0.4-0.1-0.8-0.3-1.1-0.3c-0.3-0.1-0.5-0.3-0.7-0.6c-0.2-0.3-0.3-0.6-0.3-1c0-0.3,0.1-0.7,0.3-0.9c0.2-0.3,0.4-0.5,0.7-0.7
					c0.3-0.2,0.7-0.2,1.1-0.2c0.6,0,1.1,0.2,1.5,0.5c0.4,0.3,0.6,0.7,0.7,1.1H450c0-0.2-0.1-0.3-0.3-0.6c-0.1-0.2-0.3-0.3-0.6-0.5
					c-0.3-0.1-0.6-0.2-0.9-0.2c-0.5,0-0.9,0.1-1.2,0.4c-0.3,0.3-0.5,0.6-0.5,1c0,0.3,0.1,0.6,0.3,0.8c0.2,0.2,0.4,0.3,0.6,0.5
					c0.3,0.1,0.6,0.2,1,0.3c0.5,0.1,0.8,0.3,1.1,0.4c0.3,0.1,0.5,0.3,0.7,0.6c0.2,0.3,0.3,0.6,0.3,1c0,0.3-0.1,0.6-0.3,0.9
					c-0.2,0.3-0.4,0.5-0.7,0.7s-0.7,0.3-1.2,0.3C447.9,530.9,447.5,530.9,447.1,530.7z"/>
				<path d="M458.7,523.9v0.4h-2l0,6.6h-0.4l0-6.6h-2v-0.4H458.7z"/>
				<path d="M463.2,524v4.4c0,0.8,0.2,1.4,0.5,1.7c0.3,0.3,0.8,0.6,1.5,0.6c0.6,0,1.1-0.2,1.4-0.5c0.3-0.3,0.5-1,0.5-1.7V524h0.4
					v4.4c0,0.9-0.2,1.6-0.7,2c-0.4,0.4-1,0.7-1.8,0.7s-1.3-0.2-1.8-0.7c-0.4-0.5-0.7-1.1-0.7-2V524H463.2z"/>
				<path d="M476.9,525c0.7,0.6,1,1.5,1,2.6c0,1.1-0.3,2-1,2.6c-0.7,0.6-1.6,0.9-2.7,0.9h-2l0-7h2C475.3,524,476.2,524.3,476.9,525z
					 M476.5,529.8c0.6-0.6,0.8-1.3,0.8-2.3s-0.3-1.7-0.8-2.3s-1.3-0.8-2.4-0.8h-1.5l0,6.2h1.5C475.2,530.6,476,530.4,476.5,529.8z"
					/>
				<path d="M482.6,524l0,7h-0.4l0-7H482.6z"/>
				<path d="M488.6,530.7c-0.5-0.3-0.9-0.7-1.2-1.3c-0.3-0.6-0.4-1.2-0.4-1.9c0-0.7,0.2-1.3,0.4-1.9c0.3-0.5,0.7-1,1.2-1.3
					c0.5-0.3,1.1-0.4,1.7-0.4c0.7,0,1.2,0.2,1.7,0.5c0.5,0.3,0.9,0.7,1.2,1.3c0.3,0.5,0.4,1.2,0.4,1.9c0,0.7-0.2,1.3-0.4,1.8
					c-0.3,0.6-0.7,1-1.2,1.3c-0.5,0.3-1.1,0.4-1.7,0.4C489.7,531.2,489.1,531,488.6,530.7z M491.9,530.4c0.4-0.3,0.8-0.6,1-1.1
					c0.3-0.5,0.4-1,0.4-1.7c0-0.7-0.1-1.2-0.4-1.7s-0.6-0.9-1-1.1s-1-0.4-1.5-0.4c-0.6,0-1,0.1-1.5,0.4c-0.4,0.3-0.8,0.6-1.1,1.1
					c-0.3,0.5-0.4,1-0.4,1.7c0,0.7,0.1,1.2,0.4,1.7s0.6,0.9,1,1.1s1,0.4,1.5,0.4C490.9,530.8,491.4,530.6,491.9,530.4z"/>
				<path d="M504.1,525.8c0.3-0.5,0.7-1,1.2-1.3c0.5-0.3,1.1-0.4,1.7-0.4c0.8,0,1.5,0.2,2,0.6c0.6,0.4,1,0.9,1.2,1.6h-0.5
					c-0.2-0.5-0.5-1-1-1.3c-0.5-0.3-1-0.5-1.7-0.5c-0.5,0-1,0.1-1.5,0.4c-0.4,0.3-0.8,0.6-1,1.1c-0.3,0.5-0.4,1-0.4,1.7
					s0.1,1.2,0.4,1.7s0.6,0.9,1,1.1c0.4,0.3,0.9,0.4,1.5,0.4c0.7,0,1.3-0.1,1.7-0.5c0.5-0.3,0.8-0.7,1-1.3h0.5
					c-0.3,0.7-0.7,1.2-1.2,1.6c-0.6,0.4-1.2,0.6-2,0.6c-0.7,0-1.2-0.2-1.7-0.5c-0.5-0.3-0.9-0.7-1.2-1.3c-0.3-0.6-0.4-1.2-0.4-1.8
					C503.7,526.9,503.8,526.3,504.1,525.8z"/>
				<path d="M518.4,531.2l-1.8-3h0H515v3h-0.4l0-7h1.9c0.8,0,1.3,0.2,1.7,0.6c0.4,0.3,0.6,0.9,0.6,1.5c0,0.5-0.2,1-0.5,1.3
					s-0.7,0.6-1.3,0.7l1.8,3L518.4,531.2z M515.1,527.9h1.5c0.6,0,1.1-0.1,1.4-0.4c0.3-0.3,0.5-0.7,0.5-1.2c0-1.1-0.6-1.6-1.9-1.6
					h-1.5L515.1,527.9z"/>
				<path d="M523.6,524.6v2.9h2.8v0.4h-2.8v2.9h3.1v0.4h-3.6l0-7h3.6v0.4L523.6,524.6z"/>
				<path d="M535,529.5h-3.3l-0.7,1.8h-0.5l2.6-6.9h0.5l2.5,6.9h-0.5L535,529.5z M534.9,529.1l-1.5-4.1l-1.6,4.1H534.9z"/>
				<path d="M544.2,524.3v0.4h-2l0,6.6h-0.4l0-6.6h-2v-0.4H544.2z"/>
				<path d="M548.7,524.3l0,7h-0.4l0-7H548.7z"/>
				<path d="M558.6,524.4l-2.7,7h-0.5l-2.6-7h0.5l2.4,6.5l2.5-6.5H558.6z"/>
				<path d="M564.1,531.1c-0.5-0.3-0.9-0.7-1.2-1.3c-0.3-0.6-0.4-1.2-0.4-1.9c0-0.7,0.2-1.3,0.4-1.9c0.3-0.5,0.7-1,1.2-1.3
					c0.5-0.3,1.1-0.4,1.7-0.4c0.7,0,1.2,0.2,1.7,0.5c0.5,0.3,0.9,0.7,1.2,1.3c0.3,0.6,0.4,1.2,0.4,1.9c0,0.7-0.2,1.3-0.4,1.8
					c-0.3,0.6-0.7,1-1.2,1.3c-0.5,0.3-1.1,0.4-1.7,0.4C565.1,531.5,564.6,531.4,564.1,531.1z M567.3,530.8c0.4-0.3,0.8-0.6,1-1.1
					s0.4-1,0.4-1.7c0-0.7-0.1-1.2-0.4-1.7s-0.6-0.9-1-1.1c-0.4-0.3-1-0.4-1.5-0.4c-0.6,0-1,0.1-1.5,0.4c-0.4,0.3-0.8,0.6-1.1,1.1
					c-0.3,0.5-0.4,1-0.4,1.7s0.1,1.2,0.4,1.7c0.3,0.5,0.6,0.9,1,1.1c0.4,0.3,1,0.4,1.5,0.4C566.3,531.2,566.8,531,567.3,530.8z"/>
			</g>
		</g>
	</g>
</g>
</svg>
