<?xml version="1.0" encoding="utf-8"?>
<!-- Generator: Adobe Illustrator 24.2.3, SVG Export Plug-In . SVG Version: 6.00 Build 0)  -->
<svg version="1.1" id="Layer_1" xmlns="http://www.w3.org/2000/svg" xmlns:xlink="http://www.w3.org/1999/xlink" x="0px" y="0px"
	 viewBox="0 0 1000 1000" style="enable-background:new 0 0 1000 1000;" xml:space="preserve">
<g>
	<g>
		<g>
			<path d="M354.7,444.4c-2.1-4.1-4.8-8-8-11.3c-2.8-2.7-5.9-6.4-9.8-7.4c9.3,11.9,21.1,35,3.9,67.9c-12.8,24.4-47.1,37.8-62,29.7
				c-14.9-8.1-13-32.5,1.6-56.2c7.1-11.6,16.9-22.2,27.7-27.9c4.3-2.2,8.7-3.6,12.8-3.8c5.6-0.3,11.2,1.9,12.8,6.5
				c1.3,3.7-0.1,11.3-5.6,13c-6.6,2-10.6,7.7-12.3,9.7c-1.7,2-9.9,16.8,1.8,21.3c11.7,4.5,25.2-16.3,22.4-32.6
				c-0.8-4.5-1.8-8.7-3.8-12.2c-2.1-3.6-5.2-6.2-8.7-7.9c-6.3-3.1-14-4.6-21.9-3.8c-9.3,0.9-19.5,5.2-28.5,13
				c-5.1,4.4-9.7,9.8-13.3,15.8c-15.1,24.5-9.1,54.3,14.1,66.8c5.1,2.8,10.7,4.6,16.5,5.6c-5.6,2.6-14.3,6.6-14.3,6.6l-12.1,6.8
				c-1.4,0.8-2.6,1.5-3.4,2c-0.8,0.5-1.4,1-1.8,1.4c-0.4,0.4-0.7,0.8-0.8,1.1c-0.1,0.3-0.2,0.7-0.2,1.1c0,1.5,0.9,2.3,2.7,2.3
				c1.1,0,1.9-0.3,2.7-0.9c0.7-0.6,1.5-1.3,2.3-2.1c0.8-0.8,1.7-1.5,2.7-2.1c1-0.6,2.3-0.9,3.9-0.9c2.4,0,4.7,0.7,7.2,2
				c2.4,1.3,4.9,2.8,7.6,4.4c2.6,1.6,5.4,3.1,8.3,4.4c2.9,1.3,6.1,2,9.6,2c2.3,0,4.4-0.3,6.4-1c2-0.7,3.7-1.6,5.2-2.8
				c1.5-1.2,2.6-2.6,3.5-4.3c0.8-1.6,1.3-3.5,1.3-5.4c0-0.7,0-1.4-0.1-2c-0.1-0.7-0.1-1.3-0.3-1.9l-2.3,0c-0.9,3-2.2,5.2-3.7,6.4
				c-1.5,1.2-3.7,1.8-6.6,1.8c-2.5,0-5-0.4-7.2-1.1c-2.3-0.7-4.6-1.5-6.9-2.5c-2.3-0.9-4.6-1.7-7.1-2.5c-2.4-0.7-5-1.1-7.8-1.1
				c-0.5,0-1.1,0-1.7,0c-0.7,0-1.2,0.1-1.5,0.1l0-0.4c1.3-1,2.8-1.8,4.3-2.6c1.6-0.7,3.2-1.4,4.9-2.1c1.3-0.5,10.7-4.7,14-6.2
				c6.6,0.2,13.3-0.8,19.5-2.8c23-7.4,36.6-30.3,38.3-53.6c0.1-1.4,0.2-2.8,0.2-4.3C360.9,461.7,358.9,452.5,354.7,444.4"/>
			<path d="M416.2,526.5c0,0.7-0.3,1.1-0.8,1.2c-6.1,0.6-10.2,1.8-12.5,3.4c-0.5,0.4-0.9,0.5-1.4,0.5c-0.7,0-1-0.3-1-0.8l0.4-6.3
				c-5,4.4-9.4,6.6-13.4,6.6c-4.6,0-8.1-1.3-10.6-3.9c-2.5-2.6-3.8-6.1-3.8-10.5l0.1-18.7c0-3-0.4-4.9-1.1-5.9
				c-0.8-1-2.3-1.5-4.5-1.5c-0.4,0-0.9,0-1.4,0c-0.5,0-0.7-0.4-0.7-1.3c0-1,0.3-1.6,0.8-1.6c3.9,0,8.9-0.7,15.2-2.2
				c0.6,0,0.9,0.4,0.9,1.3l-0.1,27.5c0,3.8,0.7,6.5,2.1,8.2c1.4,1.7,3.7,2.6,6.7,2.6c2,0,3.7-0.3,5.2-1.1c1.5-0.7,3.1-2,4.8-3.9
				l0.1-22.1c0-2.9-0.4-4.9-1.1-5.9c-0.8-1-2.3-1.5-4.7-1.5c-0.4,0-0.9,0-1.4,0c-0.5,0-0.7-0.4-0.7-1.3c0-1,0.3-1.6,0.8-1.6
				c3.9,0,8.9-0.7,15.2-2.2c0.6,0,0.9,0.4,0.9,1.3l-0.2,31.9c0,2.3,0.3,3.8,1,4.6c0.6,0.8,2.2,1.4,4.6,1.7
				C415.9,525.2,416.2,525.6,416.2,526.5z"/>
			<path d="M460.5,501.6c0,0.9-0.6,1.4-1.8,1.4l-27.4-0.1c-0.2,1.8-0.3,3.7-0.3,5.6c0,5.4,1.2,9.5,3.8,12.4
				c2.5,2.9,6.1,4.4,10.8,4.4c2.4,0,4.7-0.6,7.2-1.9c2.4-1.3,4.3-2.9,5.8-4.8l0.3-0.1c0.3,0,0.6,0.2,0.9,0.6
				c0.3,0.4,0.4,0.8,0.4,1.3c0,0.7-1.1,2.2-3.2,4.4c-2.1,2.2-4.5,3.9-7,5c-2.5,1.2-5.1,1.7-7.9,1.7c-6,0-11-2.3-15.1-6.7
				c-4.1-4.4-6.1-9.8-6.1-16.2c0-6.5,2.1-12,6.1-16.6c4-4.5,9.1-6.8,15.3-6.7c5.2,0,9.5,1.7,13,5.1
				C458.8,493.8,460.5,497.5,460.5,501.6z M451.4,497.2c0-2.5-0.8-4.6-2.5-6.2c-1.7-1.7-3.9-2.5-6.6-2.5c-2.6,0-4.8,1.1-6.7,3.2
				c-1.9,2.1-3.2,5-3.9,8.4l13.9-0.3c2.1,0,3.6-0.2,4.5-0.6C451,498.8,451.4,498.2,451.4,497.2z"/>
			<path d="M514.9,508.5c0,6.1-2.2,11.5-6.6,16.2c-4.4,4.7-9.4,7-15.1,7c-3.2,0-6.2-0.7-9.2-2c-2-0.9-3.8-1.4-5.4-1.4
				c-2.5,0-4.2,1-5,3.2c-0.2,0.4-0.6,0.6-1.3,0.6c-0.9,0-1.3-0.3-1.3-0.8c0.3-2.8,0.4-6.2,0.4-10.1l0.2-48.7c0-2.7-0.3-4.5-1-5.3
				c-0.7-0.8-2.2-1.4-4.5-1.6c-0.5,0-0.8-0.4-0.8-1.2c0-0.9,0.3-1.4,0.8-1.4c5.9-1.5,10.1-3.2,12.6-5.2c0.5-0.4,0.9-0.6,1.2-0.6
				c0.9,0,1.4,0.3,1.4,0.8c-0.6,7.3-0.9,13.1-0.9,17.5l-0.1,14.9c3.2-3.1,7-4.7,11.5-4.6c6.8,0,12.3,2.1,16.5,6.2
				C512.9,495.9,515,501.5,514.9,508.5z M504.9,508.9c0-6.1-1.2-10.9-3.6-14.4c-2.4-3.5-5.8-5.2-10.2-5.3c-2.4,0-4.7,0.9-6.9,2.6
				c-2.3,1.8-3.4,3.5-3.4,5.3l-0.1,23.1c0,1.8,1.3,3.6,4,5.4c2.7,1.8,5.2,2.8,7.5,2.8c4,0,7.1-1.7,9.4-5.3
				C503.7,519.6,504.8,514.8,504.9,508.9z"/>
			<path d="M556.1,490.8c0,1.3-0.4,2.5-1.2,3.4c-0.8,0.9-1.8,1.4-3,1.4c-1.5,0-2.9-0.5-4.3-1.5c-1.1-0.8-2.1-1.2-2.9-1.2
				c-2.2,0-4.4,1.2-6.7,3.8l-0.1,22.5c0,2.9,0.5,4.9,1.5,6.1c1,1.2,3.1,2,6.4,2.4c0.5,0.1,0.8,0.5,0.8,1.4c0,0.9-0.3,1.4-0.8,1.4
				c-1.4,0-3.3-0.1-5.8-0.3c-2.8-0.2-4.9-0.3-6.6-0.3c-1.7,0-3.7,0.1-6,0.3c-2.1,0.2-3.9,0.3-5.2,0.3c-0.5,0-0.8-0.5-0.8-1.4
				c0-0.8,0.3-1.3,0.8-1.3c2.9-0.4,4.8-1,5.6-2c0.8-1,1.2-3.1,1.3-6.4l0.1-18.5c0-2.7-0.3-4.4-1-5.2c-0.7-0.8-2.2-1.4-4.6-1.7
				c-0.5,0-0.8-0.4-0.8-1.3c0-0.8,0.3-1.2,0.8-1.2c3.3-0.8,6-1.7,8.2-2.7c2.1-1,3.5-1.9,4.2-2.6c0.4-0.4,0.8-0.6,1.2-0.6
				c0.9,0,1.4,0.3,1.4,0.8l-0.4,6.3c2.7-2.5,5-4.2,6.9-5.2c1.9-1,3.8-1.5,5.7-1.5c1.5,0,2.8,0.5,3.9,1.5
				C555.6,488.3,556.2,489.5,556.1,490.8z"/>
			<path d="M591.6,531.8c-1.9,0-3.5-0.5-4.8-1.4c-1.4-0.9-2.3-2.2-2.8-3.7c-3.6,3.6-8.3,5.5-14,5.4c-3,0-5.4-1-7.3-2.8
				c-1.9-1.9-2.8-4.2-2.8-6.9c0-6.8,8.2-12.3,24.4-16.5l0.3-7.8l0-0.2c0-2.4-0.6-4.3-1.7-5.7c-1.2-1.4-2.7-2.1-4.7-2.1
				c-2,0-3.6,0.5-5,1.4c-1.4,0.9-2.1,2.1-2.1,3.6c0,2.1-0.6,3.8-1.7,5c-1.1,1.2-2.5,1.8-4.3,1.8c-1.1,0-1.9-0.3-2.6-1
				c-0.7-0.6-1-1.5-1-2.6c0-2.6,2.4-5.2,7-8c4.7-2.8,9-4.2,13-4.2c3.6,0,6.5,1.1,8.7,3.2c2.2,2.1,3.3,5,3.3,8.6l0,0.6l-0.9,22.6
				l0,0.3c0,3.5,1.1,5.3,3.4,5.3c1.1,0,2.4-0.7,3.9-2l0.4-0.1c0.3,0,0.5,0.2,0.7,0.5c0.2,0.4,0.3,0.7,0.3,1.1c0,1-1,2.1-3,3.5
				C596.1,531.1,593.9,531.8,591.6,531.8z M584,509.2c-9.7,2.2-14.6,5.8-14.6,10.8c0,4.7,1.8,7.1,5.4,7.1c1.8,0,3.5-0.4,5.2-1.3
				c1.7-0.9,2.9-2,3.5-3.3L584,509.2z"/>
			<path d="M642.8,494.1c0,2.7-1.4,4.1-4.1,4.1c-1.2,0-2.1-0.3-2.9-0.8c-0.7-0.5-1.5-1.6-2.3-3.3c-0.9-2-1.8-3.3-2.9-3.9
				c-1-0.6-2.3-0.9-4-0.9c-4,0-7.1,1.6-9.2,5c-2.1,3.3-3.2,8.2-3.2,14.6c0,5.4,1.3,9.7,3.9,13c2.6,3.3,6.2,5,10.7,5
				c5.1,0,9.1-1.5,12.1-4.7l0.2-0.1c0.3,0,0.6,0.2,0.9,0.6c0.3,0.4,0.4,0.8,0.4,1.3c0,0.7-1,1.8-2.9,3.4c-2,1.6-4.1,2.8-6.4,3.7
				c-2.3,0.8-4.8,1.2-7.4,1.2c-6,0-11.1-2.2-15.3-6.6c-4.2-4.4-6.3-9.9-6.3-16.6c0-6.6,2.3-12.1,6.8-16.4c4.5-4.3,9.7-6.5,15.8-6.4
				c4.5,0,8.3,0.8,11.4,2.4C641.2,490.1,642.8,492,642.8,494.1z"/>
			<path d="M701.7,529.8c0,0.9-0.3,1.4-0.8,1.4c-1.3,0-3-0.1-4.9-0.3c-2.1-0.2-4-0.3-5.6-0.3c-1.7,0-3.6,0.1-5.8,0.3
				c-2,0.2-3.6,0.3-5,0.3c-0.5,0-0.8-0.5-0.8-1.4c0-0.8,0.3-1.3,0.8-1.3c2.3-0.3,3.8-0.9,4.5-1.9c0.7-1,1.1-3.2,1.1-6.5l0.1-16.7
				c0-7.2-3.2-10.8-9.8-10.8c-4.1,0-7.7,1.6-10.7,4.9l-0.1,22.5c0,3,0.4,5.1,1.3,6.3c0.9,1.2,2.6,1.9,5.1,2.2
				c0.5,0.1,0.8,0.5,0.8,1.4c0,0.9-0.3,1.4-0.8,1.4c-1.4,0-3.1-0.1-5.3-0.3c-2.5-0.2-4.5-0.3-6.1-0.3c-1.7,0-3.6,0.1-5.7,0.3
				c-1.9,0.2-3.5,0.3-4.9,0.3c-0.5,0-0.8-0.5-0.8-1.4c0-0.8,0.3-1.3,0.8-1.3c2.8-0.3,4.6-0.9,5.5-1.9c0.8-1,1.3-3.2,1.3-6.5
				l0.2-46.4c0-2.7-0.3-4.5-0.9-5.3c-0.6-0.8-2.1-1.4-4.5-1.7c-0.5-0.1-0.8-0.5-0.8-1.3c0-0.9,0.3-1.3,0.8-1.3
				c5.7-1.3,9.9-3,12.6-5.2c0.5-0.4,0.9-0.6,1.2-0.6c0.9,0,1.4,0.3,1.4,0.8c-0.6,5.5-0.9,11.3-0.9,17.4l-0.1,16.9
				c4.8-4.5,9.5-6.7,14.2-6.7c4.7,0,8.5,1.3,11.2,4c2.7,2.6,4.1,6.1,4,10.5l-0.1,19.1c0,3.3,0.4,5.4,1.2,6.4c0.8,1,2.7,1.7,5.5,2.1
				C701.4,528.5,701.7,529,701.7,529.8z"/>
			<path d="M752.2,510.2c0,6.6-2.2,12.1-6.6,16.3c-4.3,4.3-9.9,6.4-16.8,6.3s-12.5-2.2-16.8-6.5c-4.3-4.3-6.5-9.8-6.4-16.4
				c0-6.7,2.2-12.3,6.6-16.7c4.4-4.4,10-6.6,16.8-6.6c6.8,0,12.4,2.3,16.7,6.7C750.1,497.9,752.2,503.4,752.2,510.2z M742.1,510
				c0-6.1-1.1-11-3.5-14.6c-2.3-3.7-5.5-5.5-9.6-5.5c-4.1,0-7.3,1.8-9.7,5.4c-2.4,3.7-3.6,8.5-3.6,14.6c0,6,1.1,10.8,3.4,14.4
				c2.3,3.6,5.5,5.3,9.7,5.4c4.1,0,7.4-1.7,9.7-5.2C740.9,520.9,742.1,516.1,742.1,510z"/>
		</g>
		<g>
			<g>
				<path d="M354,556.5l0,6.7l6.4,0l0,0.9l-6.4,0l0,6.8l7.1,0l0,0.9l-8.2,0l0.1-16.1l8.2,0l0,0.9L354,556.5z"/>
				<path d="M373,571.5c-0.8-0.4-1.4-0.9-1.8-1.5c-0.4-0.6-0.7-1.3-0.7-2.1l1.1,0c0.1,0.8,0.5,1.6,1.2,2.3c0.7,0.7,1.7,1,3,1
					c0.8,0,1.5-0.1,2.1-0.4c0.6-0.3,1-0.7,1.4-1.2c0.3-0.5,0.5-1.1,0.5-1.7c0-0.8-0.2-1.4-0.6-1.9s-0.8-0.8-1.4-1
					c-0.6-0.2-1.3-0.5-2.3-0.7c-1-0.3-1.9-0.6-2.5-0.8c-0.6-0.3-1.2-0.7-1.6-1.3c-0.4-0.6-0.6-1.4-0.6-2.4c0-0.8,0.2-1.5,0.6-2.1
					c0.4-0.6,1-1.1,1.7-1.5s1.6-0.5,2.6-0.5c1.4,0,2.6,0.4,3.4,1.1c0.9,0.7,1.4,1.6,1.6,2.6l-1.1,0c-0.1-0.4-0.3-0.8-0.6-1.3
					c-0.3-0.4-0.8-0.8-1.3-1.1c-0.6-0.3-1.3-0.4-2.1-0.4c-1.1,0-2,0.3-2.7,0.9c-0.7,0.6-1.1,1.4-1.1,2.4c0,0.8,0.2,1.4,0.6,1.9
					c0.4,0.5,0.9,0.8,1.4,1.1c0.6,0.2,1.3,0.5,2.3,0.7c1.1,0.3,1.9,0.6,2.5,0.9s1.1,0.7,1.6,1.3c0.4,0.6,0.6,1.4,0.6,2.3
					c0,0.7-0.2,1.4-0.6,2c-0.4,0.6-1,1.2-1.7,1.6c-0.7,0.4-1.6,0.6-2.7,0.6C374.7,572,373.8,571.8,373,571.5z"/>
				<path d="M399.7,555.8l0,0.9l-4.6,0L395,572l-1,0l0.1-15.3l-4.6,0l0-0.9L399.7,555.8z"/>
				<path d="M410,555.9l0,10.1c0,1.8,0.4,3.2,1.2,4s1.9,1.3,3.4,1.3c1.4,0,2.5-0.4,3.3-1.2c0.8-0.8,1.2-2.2,1.2-4l0-10.1l1,0l0,10.1
					c0,2.1-0.5,3.7-1.5,4.7c-1,1-2.4,1.5-4.1,1.5c-1.7,0-3.1-0.5-4.1-1.6s-1.5-2.6-1.5-4.7l0-10.1L410,555.9z"/>
				<path d="M441.6,558.2c1.5,1.4,2.2,3.4,2.2,6c0,2.5-0.8,4.5-2.2,5.9c-1.5,1.4-3.6,2.1-6.3,2.1l-4.5,0l0.1-16.1l4.5,0
					C438,556,440.1,556.7,441.6,558.2z M440.8,569.4c1.3-1.3,1.9-3,1.9-5.3c0-2.3-0.6-4-1.9-5.3c-1.3-1.3-3.1-1.9-5.6-1.9l-3.5,0
					l-0.1,14.4l3.5,0C437.7,571.3,439.5,570.7,440.8,569.4z"/>
				<path d="M454.9,556.1l-0.1,16.1l-1,0l0.1-16.1L454.9,556.1z"/>
				<path d="M468.7,571.5c-1.2-0.7-2.1-1.7-2.8-2.9c-0.7-1.3-1-2.7-1-4.3c0-1.6,0.4-3,1-4.3c0.7-1.2,1.6-2.2,2.8-2.9
					c1.2-0.7,2.5-1,4-1c1.5,0,2.8,0.4,4,1.1c1.2,0.7,2.1,1.7,2.8,2.9s1,2.7,1,4.3c0,1.6-0.4,3-1,4.2c-0.7,1.3-1.6,2.2-2.8,2.9
					c-1.2,0.7-2.5,1-4,1C471.2,572.5,469.9,572.2,468.7,571.5z M476.2,570.7c1-0.6,1.8-1.4,2.4-2.5c0.6-1.1,0.9-2.4,0.9-3.9
					c0-1.5-0.3-2.8-0.9-3.9c-0.6-1.1-1.4-2-2.4-2.6c-1-0.6-2.2-0.9-3.4-0.9c-1.3,0-2.4,0.3-3.5,0.9c-1,0.6-1.8,1.4-2.5,2.5
					c-0.6,1.1-0.9,2.4-0.9,3.9c0,1.5,0.3,2.8,0.9,3.9c0.6,1.1,1.4,2,2.4,2.6c1,0.6,2.2,0.9,3.4,0.9
					C474,571.6,475.2,571.3,476.2,570.7z"/>
				<path d="M504.4,560.2c0.7-1.2,1.6-2.2,2.8-2.9s2.5-1,3.9-1c1.8,0,3.4,0.4,4.6,1.3c1.3,0.9,2.2,2.1,2.7,3.6l-1.2,0
					c-0.5-1.2-1.2-2.2-2.3-2.9c-1.1-0.7-2.4-1.1-3.9-1.1c-1.2,0-2.4,0.3-3.4,0.9c-1,0.6-1.8,1.4-2.4,2.5c-0.6,1.1-0.9,2.4-0.9,3.9
					c0,1.5,0.3,2.8,0.9,3.9c0.6,1.1,1.4,2,2.4,2.6c1,0.6,2.1,0.9,3.4,0.9c1.5,0,2.9-0.3,3.9-1.1c1.1-0.7,1.8-1.7,2.3-2.9l1.2,0
					c-0.6,1.5-1.5,2.7-2.8,3.6c-1.3,0.9-2.8,1.3-4.7,1.3c-1.5,0-2.8-0.4-3.9-1.1c-1.2-0.7-2.1-1.7-2.7-2.9c-0.7-1.3-1-2.7-1-4.2
					C503.4,562.8,503.7,561.4,504.4,560.2z"/>
				<path d="M537.3,572.7l-4.1-6.9h-0.1l-3.5,0l0,6.9l-1,0l0.1-16.1l4.4,0c1.8,0,3.1,0.4,4,1.3c0.9,0.8,1.3,2,1.3,3.4
					c0,1.2-0.4,2.3-1.1,3.1c-0.7,0.8-1.7,1.3-3.1,1.5l4.2,7L537.3,572.7z M529.7,564.9l3.5,0c1.4,0,2.5-0.3,3.2-1
					c0.7-0.7,1.1-1.6,1.1-2.7c0-2.5-1.4-3.7-4.3-3.7l-3.4,0L529.7,564.9z"/>
				<path d="M549.5,557.4l0,6.7l6.4,0l0,0.9l-6.4,0l0,6.8l7.1,0l0,0.9l-8.2,0l0.1-16.1l8.2,0l0,0.9L549.5,557.4z"/>
				<path d="M575.8,568.7l-7.7,0l-1.6,4.1l-1.1,0l6-15.8l1.1,0l5.8,15.8l-1.1,0L575.8,568.7z M575.4,567.8l-3.4-9.4l-3.6,9.4
					L575.4,567.8z"/>
				<path d="M596.9,556.8l0,0.9l-4.6,0l-0.1,15.3l-1,0l0.1-15.3l-4.6,0l0-0.9L596.9,556.8z"/>
				<path d="M607.3,556.8l-0.1,16.1l-1,0l0.1-16.1L607.3,556.8z"/>
				<path d="M630.2,557l-6.2,16.1l-1.1,0l-6.1-16.2l1.1,0l5.5,15l5.7-14.9L630.2,557z"/>
				<path d="M642.7,572.3c-1.2-0.7-2.1-1.7-2.8-2.9c-0.7-1.3-1-2.7-1-4.3c0-1.6,0.4-3,1-4.3c0.7-1.2,1.6-2.2,2.8-2.9
					c1.2-0.7,2.5-1,4-1c1.5,0,2.8,0.4,4,1.1c1.2,0.7,2.1,1.7,2.8,2.9c0.7,1.3,1,2.7,1,4.3c0,1.6-0.4,3-1,4.2
					c-0.7,1.3-1.6,2.2-2.8,2.9c-1.2,0.7-2.5,1-4,1C645.2,573.4,643.9,573,642.7,572.3z M650.2,571.6c1-0.6,1.8-1.4,2.4-2.5
					c0.6-1.1,0.9-2.4,0.9-3.9c0-1.5-0.3-2.8-0.9-3.9c-0.6-1.1-1.4-2-2.4-2.6c-1-0.6-2.2-0.9-3.4-0.9c-1.3,0-2.4,0.3-3.5,0.9
					c-1,0.6-1.8,1.4-2.5,2.5c-0.6,1.1-0.9,2.4-0.9,3.9c0,1.5,0.3,2.8,0.9,3.9c0.6,1.1,1.4,2,2.4,2.6c1,0.6,2.2,0.9,3.4,0.9
					C648,572.5,649.1,572.2,650.2,571.6z"/>
			</g>
		</g>
	</g>
</g>
</svg>
