<?xml version="1.0" encoding="utf-8"?>
<!-- Generator: Adobe Illustrator 24.2.3, SVG Export Plug-In . SVG Version: 6.00 Build 0)  -->
<svg version="1.1" id="Layer_1" xmlns="http://www.w3.org/2000/svg" xmlns:xlink="http://www.w3.org/1999/xlink" x="0px" y="0px"
	 viewBox="0 0 32 32" style="enable-background:new 0 0 32 32;" xml:space="preserve">
<style type="text/css">
	.st0{fill:#FFFFFF;}
</style>
<g>
	<path class="st0" d="M17,2C8.7,2,2,8.7,2,17s6.7,15,15,15s15-6.7,15-15S25.3,2,17,2z M24,11.5L18.4,17l4.9,5.5c0.4,0.4,0.4,1,0,1.4
		s-1,0.4-1.4,0L17,18.5L11.5,24c-0.4,0.4-1,0.4-1.4,0s-0.4-1,0-1.4l5.6-5.6l-4.9-5.5c-0.4-0.4-0.4-1,0-1.4s1-0.4,1.4,0l4.9,5.5
		l5.5-5.5c0.4-0.4,1-0.4,1.4,0C24.3,10.4,24.3,11.1,24,11.5z"/>
</g>
</svg>
