<svg id="Layer_1" data-name="Layer 1" xmlns="http://www.w3.org/2000/svg" viewBox="0 0 398.52 502.51"><defs><style>.cls-1{fill:none;stroke:#000;stroke-width:1.92px;}</style></defs><path class="cls-1" d="M675.18,319.94c-7.89-15.25-17.86-30.19-30.11-42.32-10.33-10.23-22.15-24.16-37-27.62,34.81,44.83,79.24,131.56,14.5,254.86-48.14,91.69-177,141.88-233,111.59s-48.7-122.25,6-211c26.73-43.38,63.47-83.45,104-104.56,16.2-8.43,32.66-13.51,48.08-14.37,20.9-1.16,41.94,7.09,48.13,24.26,5,13.86-.47,42.6-21,48.63-24.91,7.32-39.94,28.82-46.37,36.26s-37.31,63,6.6,80,94.56-61.14,84.3-122.29c-2.84-16.95-6.65-32.58-14.27-45.86-7.78-13.56-19.47-23.14-32.73-29.69-23.59-11.65-52.49-17.21-82.2-14.3C455.19,266.89,417,282.94,383,312.34a257.85,257.85,0,0,0-50.13,59.22c-56.77,92.15-34.25,203.91,52.91,251a203.72,203.72,0,0,0,62,21.22C426.7,653.7,394,668.71,394,668.71l-45.55,25.61q-8.07,4.5-12.62,7.44A43.8,43.8,0,0,0,329,707a12.79,12.79,0,0,0-3,4,11.11,11.11,0,0,0-.72,4.19c0,5.81,3.32,8.75,10.08,8.78a14.69,14.69,0,0,0,10-3.44q4-3.46,8.6-7.81a61.45,61.45,0,0,1,10.17-7.81q5.61-3.46,14.69-3.41,13.28.07,26.86,7.66t28.38,16.57a309.52,309.52,0,0,0,31.35,16.59A86.73,86.73,0,0,0,501.54,750a73.37,73.37,0,0,0,24.12-3.72,61.15,61.15,0,0,0,19.45-10.54,50.67,50.67,0,0,0,13-16A44.35,44.35,0,0,0,563,699.33c0-2.57-.09-5.13-.31-7.69a56.05,56.05,0,0,0-1-7l-8.73,0q-5.34,17.08-13.76,24t-24.84,6.85a91.32,91.32,0,0,1-27.22-4.16q-12.91-4.1-25.81-9.22t-26.5-9.23a103.33,103.33,0,0,0-29.32-4.18c-1.87,0-4,0-6.46.14a52.71,52.71,0,0,0-5.77.49v-1.39a89.41,89.41,0,0,1,16.3-9.7q8.93-4.14,18.38-7.93c5.06-1.83,40-17.8,52.51-23.31a224,224,0,0,0,73.37-10.47c86.29-27.66,137.51-113.84,143.85-201.34q.57-8,.65-16c.33-34.25-7.34-68.79-23.11-99.27" transform="translate(-300.74 -248.45)"/></svg>