<?xml version="1.0" encoding="utf-8"?>
<!-- Generator: Adobe Illustrator 24.2.3, SVG Export Plug-In . SVG Version: 6.00 Build 0)  -->
<svg version="1.1" id="Layer_1" xmlns="http://www.w3.org/2000/svg" xmlns:xlink="http://www.w3.org/1999/xlink" x="0px" y="0px"
	 viewBox="0 0 200 62" style="enable-background:new 0 0 200 62;" xml:space="preserve">
<g>
	<g>
		<g>
			<path d="M42,9c-0.8-1.6-1.9-3.2-3.2-4.5c-1.1-1.1-2.4-2.6-3.8-2.9c3.7,4.8,8.3,13.9,1.6,26.9c-5,9.7-18.7,15-24.6,11.8
				s-5.1-12.9,0.6-22.3c2.8-4.6,6.7-8.8,11-11.1c1.7-0.9,3.5-1.5,5-1.5c2.2-0.1,4.5,0.7,5,2.6c0.5,1.5,0,4.5-2.2,5.1
				c-2.7,0.8-4.2,3-4.8,3.8c-0.6,0.8-3.9,6.7,0.7,8.4c4.7,1.8,10-6.5,8.9-12.9c-0.3-1.8-0.7-3.5-1.5-4.8c-0.8-1.5-2.1-2.5-3.5-3.1
				c-2.5-1.2-5.6-1.8-8.7-1.5c-3.7,0.4-7.8,2.1-11.3,5.1c-2,1.7-3.8,3.8-5.3,6.3C-0.1,24.2,2.3,36,11.5,41c2,1.1,4.2,1.8,6.6,2.2
				c-2.2,1-5.7,2.7-5.7,2.7l-4.8,2.7c-0.5,0.3-1,0.6-1.4,0.8c-0.3,0.2-0.5,0.4-0.7,0.5c-0.2,0.2-0.3,0.3-0.3,0.5
				c0,0.2-0.1,0.3-0.1,0.5c0,0.6,0.4,0.9,1.1,0.9c0.5,0,0.7-0.1,1.1-0.4c0.3-0.3,0.6-0.5,0.9-0.8c0.3-0.3,0.6-0.6,1.1-0.8
				c0.4-0.3,0.9-0.4,1.6-0.4c0.9,0,1.8,0.3,2.8,0.8c0.9,0.5,1.9,1.1,3,1.7c1,0.6,2.1,1.2,3.3,1.7c1.2,0.5,2.4,0.8,3.8,0.8
				c0.9,0,1.7-0.1,2.6-0.4c0.8-0.3,1.5-0.6,2.1-1.1c0.6-0.5,1-1,1.4-1.7c0.3-0.6,0.5-1.4,0.5-2.1c0-0.3,0-0.5,0-0.8
				c0-0.3,0-0.5-0.1-0.7h-0.9c-0.4,1.2-0.9,2.1-1.5,2.6c-0.6,0.5-1.5,0.7-2.7,0.7c-1,0-2-0.2-2.8-0.5c-0.9-0.3-1.8-0.6-2.7-1
				c-0.9-0.4-1.8-0.6-2.8-1c-0.9-0.3-2-0.5-3.1-0.5c-0.2,0-0.5,0-0.6,0c-0.3,0-0.5,0-0.6,0v-0.2c0.5-0.4,1.1-0.7,1.7-1
				c0.6-0.3,1.3-0.5,1.9-0.8c0.5-0.2,4.2-1.8,5.6-2.5c2.7,0.1,5.3-0.3,7.8-1.1c9.1-2.9,14.5-12,15.2-21.2c0-0.5,0.1-1.1,0.1-1.7
				C44.5,15.8,43.7,12.2,42,9"/>
			<path d="M66.4,41.5c0,0.3-0.1,0.5-0.3,0.5c-2.4,0.3-4,0.7-4.9,1.4c-0.2,0.2-0.4,0.2-0.5,0.2c-0.3,0-0.4-0.1-0.4-0.3l0.2-2.5
				c-2,1.7-3.8,2.7-5.3,2.7c-1.8,0-3.2-0.5-4.2-1.6c-1-1-1.5-2.4-1.5-4.2v-7.4c0-1.2-0.2-1.9-0.5-2.4c-0.3-0.4-0.9-0.6-1.8-0.6
				c-0.2,0-0.4,0-0.5,0s-0.3-0.2-0.3-0.5s0.1-0.6,0.3-0.6c1.6,0,3.6-0.3,6-0.9c0.3,0,0.4,0.2,0.4,0.5v10.9c0,1.5,0.3,2.6,0.8,3.3
				c0.5,0.6,1.5,1,2.7,1c0.8,0,1.5-0.1,2.1-0.5c0.6-0.3,1.2-0.8,1.9-1.6v-8.8c0-1.2-0.2-1.9-0.5-2.4c-0.3-0.4-0.9-0.6-1.8-0.6
				c-0.2,0-0.4,0-0.5,0c-0.2,0-0.3-0.2-0.3-0.5s0.1-0.6,0.3-0.6c1.6,0,3.6-0.3,6-0.9c0.3,0,0.4,0.2,0.4,0.5l-0.1,12.6
				c0,0.9,0.1,1.5,0.4,1.8c0.3,0.3,0.9,0.5,1.8,0.6C66.3,41,66.4,41.2,66.4,41.5z"/>
			<path d="M84,31.7c0,0.4-0.3,0.5-0.7,0.5H72.4c-0.1,0.7-0.1,1.5-0.1,2.2c0,2.1,0.5,3.8,1.5,4.9s2.4,1.7,4.3,1.7
				c0.9,0,1.8-0.3,2.8-0.7c0.9-0.5,1.7-1.2,2.3-1.9h0.1c0.1,0,0.3,0.1,0.4,0.3c0.1,0.2,0.2,0.3,0.2,0.5c0,0.3-0.5,0.9-1.3,1.7
				c-0.8,0.9-1.8,1.6-2.7,2c-1,0.5-2,0.6-3.1,0.6c-2.4,0-4.4-0.9-5.9-2.7c-1.6-1.7-2.4-3.8-2.4-6.4s0.8-4.8,2.4-6.6s3.6-2.7,6-2.7
				c2.1,0,3.8,0.6,5.1,2C83.3,28.6,84,30,84,31.7z M80.3,29.9c0-1-0.3-1.8-1-2.5c-0.6-0.6-1.6-1-2.7-1c-1,0-1.9,0.5-2.7,1.3
				c-0.7,0.8-1.3,2-1.6,3.3l5.5-0.1c0.8,0,1.5-0.1,1.8-0.3C80.2,30.5,80.3,30.3,80.3,29.9z"/>
			<path d="M105.5,34.4c0,2.4-0.9,4.6-2.7,6.4c-1.7,1.8-3.8,2.7-5.9,2.7c-1.3,0-2.5-0.3-3.7-0.8c-0.8-0.4-1.5-0.5-2.1-0.5
				c-1,0-1.6,0.4-2,1.3c-0.1,0.2-0.3,0.3-0.5,0.3c-0.4,0-0.5-0.1-0.5-0.3c0.1-1.1,0.2-2.5,0.2-4l0.1-19.3c0-1.1-0.1-1.8-0.4-2.1
				c-0.3-0.3-0.9-0.5-1.8-0.6c-0.2,0-0.3-0.2-0.3-0.5c0-0.4,0.1-0.5,0.3-0.5c2.4-0.6,4-1.3,5-2.1c0.2-0.2,0.4-0.3,0.5-0.3
				c0.4,0,0.5,0.1,0.5,0.3c-0.3,2.9-0.4,5.2-0.4,7v5.9c1.3-1.2,2.7-1.8,4.6-1.8c2.7,0,4.8,0.8,6.6,2.5
				C104.8,29.4,105.6,31.7,105.5,34.4z M101.6,34.6c0-2.4-0.5-4.3-1.5-5.7c-0.9-1.4-2.3-2.1-4-2.1c-0.9,0-1.8,0.4-2.7,1
				c-0.9,0.7-1.4,1.4-1.4,2.1v9.1c0,0.7,0.5,1.5,1.6,2.1c1,0.6,2.1,1.1,3,1.1c1.6,0,2.8-0.6,3.8-2.1
				C101.1,38.8,101.6,36.9,101.6,34.6z"/>
			<path d="M121.9,27.4c0,0.5-0.2,1-0.5,1.4c-0.3,0.4-0.7,0.5-1.2,0.5c-0.6,0-1.2-0.2-1.7-0.6c-0.5-0.3-0.8-0.5-1.2-0.5
				c-0.9,0-1.7,0.5-2.7,1.5v9c0,1.2,0.2,1.9,0.6,2.4c0.5,0.5,1.2,0.8,2.6,0.9c0.2,0,0.3,0.2,0.3,0.5c0,0.4-0.1,0.5-0.3,0.5
				c-0.5,0-1.3,0-2.3-0.1c-1.1-0.1-1.9-0.1-2.7-0.1c-0.6,0-1.5,0-2.4,0.1c-0.8,0.1-1.6,0.1-2.1,0.1c-0.2,0-0.3-0.2-0.3-0.5
				c0-0.3,0.1-0.5,0.3-0.5c1.2-0.2,1.9-0.4,2.2-0.8c0.3-0.4,0.5-1.2,0.5-2.6v-7.3c0-1.1-0.1-1.7-0.4-2.1c-0.3-0.3-0.9-0.5-1.8-0.6
				c-0.2,0-0.3-0.2-0.3-0.5c0-0.3,0.1-0.5,0.3-0.5c1.3-0.3,2.4-0.6,3.3-1.1c0.8-0.4,1.4-0.7,1.6-1c0.2-0.2,0.3-0.3,0.5-0.3
				c0.4,0,0.5,0.1,0.5,0.3l-0.2,2.5c1.1-1,2-1.6,2.7-2.1c0.7-0.5,1.5-0.6,2.3-0.6c0.6,0,1.1,0.2,1.6,0.6
				C121.7,26.4,121.9,26.9,121.9,27.4z"/>
			<path d="M136,43.6c-0.7,0-1.4-0.2-1.9-0.5c-0.5-0.4-0.9-0.9-1.1-1.5c-1.5,1.5-3.3,2.2-5.6,2.1c-1.2,0-2.1-0.4-2.9-1.1
				c-0.7-0.7-1.1-1.6-1.1-2.7c0-2.7,3.3-4.8,9.7-6.6l0.1-3.1v-0.1c0-0.9-0.3-1.7-0.6-2.3c-0.5-0.5-1.1-0.8-1.8-0.8
				c-0.7,0-1.5,0.2-2,0.5c-0.5,0.4-0.8,0.8-0.8,1.5c0,0.8-0.3,1.5-0.6,2c-0.5,0.5-1,0.7-1.7,0.7c-0.5,0-0.7-0.1-1-0.4
				c-0.3-0.3-0.4-0.6-0.4-1c0-1,0.9-2.1,2.7-3.2c1.8-1.1,3.6-1.6,5.1-1.6c1.5,0,2.6,0.5,3.5,1.3s1.3,2,1.3,3.4v0.3l-0.4,9v0.1
				c0,1.4,0.5,2.1,1.4,2.1c0.5,0,0.9-0.3,1.6-0.8h0.2c0.1,0,0.2,0.1,0.3,0.2c0.1,0.2,0.1,0.3,0.1,0.5c0,0.4-0.4,0.8-1.2,1.4
				C137.7,43.4,136.9,43.6,136,43.6z M132.9,34.7c-3.8,0.9-5.8,2.3-5.8,4.3c0,1.8,0.7,2.8,2.1,2.8c0.7,0,1.4-0.2,2.1-0.5
				c0.6-0.4,1.2-0.8,1.4-1.3L132.9,34.7z"/>
			<path d="M156.3,28.7c0,1.1-0.5,1.6-1.6,1.6c-0.5,0-0.8-0.1-1.2-0.3c-0.3-0.2-0.6-0.6-0.9-1.3c-0.4-0.8-0.7-1.3-1.2-1.6
				c-0.4-0.3-0.9-0.4-1.6-0.4c-1.6,0-2.8,0.6-3.7,2c-0.8,1.3-1.3,3.3-1.3,5.8c0,2.1,0.5,3.8,1.6,5.1c1,1.3,2.5,2,4.2,2
				c2,0,3.6-0.6,4.8-1.8h0.1c0.1,0,0.3,0.1,0.4,0.3c0.1,0.2,0.2,0.3,0.2,0.5c0,0.3-0.4,0.7-1.2,1.4c-0.8,0.6-1.6,1.1-2.6,1.5
				c-0.9,0.3-1.9,0.5-2.9,0.5c-2.4,0-4.4-0.9-6-2.7c-1.6-1.7-2.5-3.9-2.5-6.6c0-2.7,0.9-4.8,2.7-6.5c1.8-1.7,3.8-2.6,6.3-2.6
				c1.8,0,3.3,0.3,4.5,0.9C155.6,27.1,156.3,27.9,156.3,28.7z"/>
			<path d="M179.6,42.8c0,0.4-0.1,0.5-0.3,0.5c-0.5,0-1.2,0-1.9-0.1c-0.8-0.1-1.6-0.1-2.2-0.1s-1.5,0-2.3,0.1
				c-0.8,0.1-1.5,0.1-2,0.1c-0.2,0-0.3-0.2-0.3-0.5c0-0.3,0.1-0.5,0.3-0.5c0.9-0.1,1.5-0.4,1.8-0.7c0.3-0.4,0.5-1.3,0.5-2.6v-6.6
				c0-2.8-1.3-4.3-3.8-4.3c-1.6,0-3,0.6-4.2,1.9v9c0,1.2,0.2,2,0.5,2.5c0.4,0.5,1,0.7,2,0.9c0.2,0,0.3,0.2,0.3,0.5
				c0,0.4-0.1,0.5-0.3,0.5c-0.5,0-1.2,0-2.1-0.1c-1-0.1-1.8-0.1-2.4-0.1c-0.6,0-1.5,0-2.3,0.1c-0.7,0.1-1.4,0.1-1.9,0.1
				c-0.2,0-0.3-0.2-0.3-0.5c0-0.3,0.1-0.5,0.3-0.5c1.1-0.1,1.8-0.4,2.2-0.7c0.3-0.4,0.5-1.3,0.5-2.6l0.1-18.4c0-1.1-0.1-1.8-0.4-2.1
				c-0.3-0.3-0.8-0.5-1.8-0.6c-0.2,0-0.3-0.2-0.3-0.5s0.1-0.5,0.3-0.5c2.3-0.5,3.9-1.2,5-2.1c0.2-0.2,0.4-0.3,0.5-0.3
				c0.4,0,0.5,0.1,0.5,0.3c-0.3,2.2-0.4,4.5-0.4,6.9v6.7c1.9-1.8,3.8-2.7,5.7-2.7c1.9,0,3.4,0.5,4.5,1.6c1.1,1,1.6,2.4,1.6,4.2V39
				c0,1.3,0.2,2.1,0.5,2.6c0.3,0.4,1.1,0.6,2.2,0.8C179.5,42.4,179.6,42.5,179.6,42.8z"/>
			<path d="M199.6,35c0,2.7-0.9,4.8-2.7,6.5c-1.7,1.7-3.9,2.6-6.7,2.5c-2.7,0-4.9-0.9-6.7-2.6c-1.7-1.7-2.6-3.8-2.6-6.5
				s0.9-4.8,2.7-6.6c1.7-1.7,3.9-2.7,6.7-2.7c2.7,0,4.9,0.9,6.6,2.7C198.8,30.2,199.6,32.4,199.6,35z M195.6,35
				c0-2.4-0.5-4.4-1.4-5.8c-0.9-1.5-2.2-2.2-3.8-2.2c-1.6,0-2.9,0.7-3.8,2.1c-0.9,1.5-1.5,3.4-1.5,5.8c0,2.4,0.5,4.3,1.4,5.7
				c0.9,1.5,2.2,2.1,3.8,2.1c1.6,0,2.9-0.6,3.8-2.1C195.1,39.3,195.6,37.4,195.6,35z"/>
		</g>
		<g>
			<g>
				<path d="M41.7,53.4v2.7h2.6v0.4h-2.6v2.7h2.8v0.4h-3.3v-6.4h3.3v0.4L41.7,53.4z"/>
				<path d="M49.2,59.4c-0.3-0.2-0.5-0.4-0.7-0.6c-0.2-0.3-0.3-0.5-0.3-0.8h0.5c0,0.3,0.2,0.6,0.5,0.9c0.3,0.3,0.6,0.4,1.2,0.4
					c0.3,0,0.6,0,0.8-0.2c0.3-0.1,0.4-0.3,0.5-0.5c0.1-0.2,0.2-0.5,0.2-0.6c0-0.3-0.1-0.5-0.3-0.7c-0.2-0.2-0.3-0.3-0.5-0.4
					c-0.3-0.1-0.5-0.2-0.9-0.3c-0.4-0.1-0.7-0.3-1-0.3c-0.3-0.1-0.5-0.3-0.6-0.5c-0.2-0.3-0.3-0.5-0.3-0.9c0-0.3,0.1-0.6,0.3-0.8
					c0.2-0.3,0.4-0.5,0.6-0.6c0.3-0.2,0.6-0.2,1-0.2c0.5,0,1,0.2,1.4,0.5c0.4,0.3,0.5,0.6,0.6,1h-0.3c0-0.2-0.1-0.3-0.3-0.5
					c-0.1-0.2-0.3-0.3-0.5-0.5c-0.3-0.1-0.5-0.2-0.8-0.2c-0.5,0-0.8,0.1-1.1,0.4c-0.3,0.3-0.5,0.5-0.5,0.9c0,0.3,0.1,0.5,0.3,0.7
					c0.2,0.2,0.4,0.3,0.5,0.5c0.3,0.1,0.5,0.2,0.9,0.3c0.5,0.1,0.7,0.3,1,0.4c0.3,0.1,0.5,0.3,0.6,0.5c0.2,0.3,0.3,0.5,0.3,0.9
					c0,0.3-0.1,0.5-0.3,0.8c-0.2,0.3-0.4,0.5-0.6,0.6s-0.6,0.3-1.1,0.3C50,59.6,49.6,59.6,49.2,59.4z"/>
				<path d="M59.9,53.2v0.4H58v6h-0.4v-6h-1.8v-0.4H59.9z"/>
				<path d="M64,53.2v4c0,0.7,0.2,1.3,0.5,1.6c0.3,0.3,0.7,0.5,1.4,0.5c0.5,0,1-0.2,1.3-0.5c0.3-0.3,0.5-0.9,0.5-1.6v-4.1h0.4v4
					c0,0.8-0.2,1.5-0.6,1.8c-0.4,0.4-0.9,0.6-1.6,0.6s-1.2-0.2-1.6-0.6c-0.4-0.5-0.6-1-0.6-1.8v-4H64z"/>
				<path d="M76.5,54.2c0.6,0.5,0.9,1.4,0.9,2.4c0,1-0.3,1.8-0.9,2.4c-0.6,0.5-1.5,0.8-2.5,0.8h-1.8v-6.4H74
					C75,53.2,75.9,53.5,76.5,54.2z M76.1,58.6c0.5-0.5,0.7-1.2,0.7-2.1c0-0.9-0.3-1.6-0.7-2.1s-1.2-0.7-2.2-0.7h-1.4v5.7h1.4
					C75,59.3,75.7,59.1,76.1,58.6z"/>
				<path d="M81.7,53.2v6.4h-0.4v-6.4H81.7z"/>
				<path d="M87.2,59.4c-0.5-0.3-0.8-0.6-1.1-1.2c-0.3-0.5-0.4-1.1-0.4-1.7s0.2-1.2,0.4-1.7c0.3-0.5,0.6-0.9,1.1-1.2
					c0.5-0.3,1-0.4,1.6-0.4c0.6,0,1.1,0.2,1.6,0.5c0.5,0.3,0.8,0.6,1.1,1.2c0.3,0.5,0.4,1.1,0.4,1.7c0,0.6-0.2,1.2-0.4,1.6
					c-0.3,0.5-0.6,0.9-1.1,1.2c-0.5,0.3-1,0.4-1.6,0.4C88.2,59.8,87.7,59.7,87.2,59.4z M90.2,59.1c0.4-0.3,0.7-0.5,0.9-1
					c0.3-0.5,0.4-0.9,0.4-1.6s-0.1-1.1-0.4-1.6c-0.3-0.5-0.5-0.8-0.9-1c-0.4-0.2-0.9-0.4-1.4-0.4c-0.5,0-0.9,0.1-1.4,0.4
					c-0.4,0.3-0.7,0.5-1,1c-0.3,0.5-0.4,0.9-0.4,1.6s0.1,1.1,0.4,1.6c0.3,0.5,0.5,0.8,0.9,1c0.4,0.2,0.9,0.4,1.4,0.4
					C89.3,59.5,89.8,59.3,90.2,59.1z"/>
				<path d="M101.4,54.9c0.3-0.5,0.6-0.9,1.1-1.2c0.5-0.3,1-0.4,1.6-0.4c0.7,0,1.4,0.2,1.8,0.5c0.5,0.4,0.9,0.8,1.1,1.5h-0.5
					c-0.2-0.5-0.5-0.9-0.9-1.2c-0.5-0.3-0.9-0.5-1.6-0.5c-0.5,0-0.9,0.1-1.4,0.4c-0.4,0.3-0.7,0.5-0.9,1c-0.3,0.5-0.4,0.9-0.4,1.6
					s0.1,1.1,0.4,1.6s0.5,0.8,0.9,1c0.4,0.3,0.8,0.4,1.4,0.4c0.6,0,1.2-0.1,1.6-0.5c0.5-0.3,0.7-0.6,0.9-1.2h0.5
					c-0.3,0.6-0.6,1.1-1.1,1.5c-0.5,0.4-1.1,0.5-1.8,0.5c-0.6,0-1.1-0.2-1.6-0.5c-0.5-0.3-0.8-0.6-1.1-1.2c-0.3-0.5-0.4-1.1-0.4-1.6
					C101,55.9,101.1,55.4,101.4,54.9z"/>
				<path d="M114.5,59.8l-1.6-2.7l0,0h-1.5v2.7H111v-6.4h1.7c0.7,0,1.2,0.2,1.6,0.5c0.4,0.3,0.5,0.8,0.5,1.4c0,0.5-0.2,0.9-0.5,1.2
					c-0.3,0.3-0.6,0.5-1.2,0.6l1.6,2.7L114.5,59.8z M111.4,56.8h1.4c0.5,0,1-0.1,1.3-0.4c0.3-0.3,0.5-0.6,0.5-1.1
					c0-1-0.5-1.5-1.7-1.5h-1.4V56.8z"/>
				<path d="M119.2,53.8v2.7h2.6v0.4h-2.6v2.7h2.8v0.4h-3.3v-6.4h3.3v0.4L119.2,53.8z"/>
				<path d="M129.7,58.3h-3l-0.6,1.6h-0.5l2.4-6.3h0.5l2.3,6.3h-0.5L129.7,58.3z M129.6,57.9l-1.4-3.8l-1.5,3.8H129.6z"/>
				<path d="M138.1,53.5v0.4h-1.8v6h-0.4v-6H134v-0.4H138.1z"/>
				<path d="M142.2,53.5v6.4h-0.4v-6.4H142.2z"/>
				<path d="M151.2,53.6l-2.5,6.4h-0.5l-2.4-6.4h0.5l2.2,5.9l2.3-5.9H151.2z"/>
				<path d="M156.3,59.7c-0.5-0.3-0.8-0.6-1.1-1.2c-0.3-0.5-0.4-1.1-0.4-1.7s0.2-1.2,0.4-1.7c0.3-0.5,0.6-0.9,1.1-1.2
					c0.5-0.3,1-0.4,1.6-0.4c0.6,0,1.1,0.2,1.6,0.5c0.5,0.3,0.8,0.6,1.1,1.2c0.3,0.5,0.4,1.1,0.4,1.7s-0.2,1.2-0.4,1.6
					c-0.3,0.5-0.6,0.9-1.1,1.2c-0.5,0.3-1,0.4-1.6,0.4C157.2,60.1,156.7,60,156.3,59.7z M159.2,59.5c0.4-0.3,0.7-0.5,0.9-1
					s0.4-0.9,0.4-1.6s-0.1-1.1-0.4-1.6c-0.3-0.5-0.5-0.8-0.9-1c-0.4-0.3-0.9-0.4-1.4-0.4c-0.5,0-0.9,0.1-1.4,0.4
					c-0.4,0.3-0.7,0.5-1,1c-0.3,0.5-0.4,0.9-0.4,1.6s0.1,1.1,0.4,1.6c0.3,0.5,0.5,0.8,0.9,1c0.4,0.3,0.9,0.4,1.4,0.4
					C158.3,59.8,158.7,59.7,159.2,59.5z"/>
			</g>
		</g>
	</g>
</g>
</svg>
