<?xml version="1.0" encoding="utf-8"?>
<!-- Generator: Adobe Illustrator 24.2.3, SVG Export Plug-In . SVG Version: 6.00 Build 0)  -->
<svg version="1.1" id="Layer_1" xmlns="http://www.w3.org/2000/svg" xmlns:xlink="http://www.w3.org/1999/xlink" x="0px" y="0px"
	 viewBox="0 0 62 62" style="enable-background:new 0 0 62 62;" xml:space="preserve">
<path d="M50.9,10.6c-0.9-1.7-2-3.4-3.4-4.8c-1.2-1.2-2.5-2.7-4.2-3.1c3.9,5.1,9,14.9,1.6,28.9C39.4,42,24.8,47.7,18.5,44.3
	c-6.4-3.4-5.5-13.9,0.7-23.9c3-4.9,7.2-9.5,11.8-11.9c1.8-1,3.7-1.5,5.5-1.6c2.4-0.1,4.8,0.8,5.5,2.8c0.6,1.6-0.1,4.8-2.4,5.5
	c-2.8,0.8-4.5,3.3-5.3,4.1c-0.7,0.8-4.2,7.1,0.7,9.1c5,1.9,10.7-6.9,9.6-13.9c-0.3-1.9-0.8-3.7-1.6-5.2c-0.9-1.5-2.2-2.6-3.7-3.4
	c-2.7-1.3-6-2-9.3-1.6c-4,0.4-8.3,2.2-12.2,5.5c-2.2,1.9-4.1,4.2-5.7,6.7C5.6,26.9,8.2,39.6,18,45c2.2,1.2,4.6,2,7,2.4
	c-2.4,1.1-6.1,2.8-6.1,2.8l-5.2,2.9c-0.6,0.3-1.1,0.6-1.4,0.8c-0.3,0.2-0.6,0.4-0.8,0.6c-0.2,0.2-0.3,0.3-0.3,0.5
	c-0.1,0.1-0.1,0.3-0.1,0.5c0,0.7,0.4,1,1.1,1c0.4,0,0.8-0.1,1.1-0.4c0.3-0.3,0.6-0.6,1-0.9c0.3-0.3,0.7-0.6,1.2-0.9
	c0.4-0.3,1-0.4,1.7-0.4c1,0,2,0.3,3,0.9c1,0.6,2.1,1.2,3.2,1.9c1.1,0.7,2.3,1.3,3.6,1.9c1.3,0.6,2.6,0.9,4.1,0.9
	c1,0,1.9-0.1,2.7-0.4c0.8-0.3,1.6-0.7,2.2-1.2c0.6-0.5,1.1-1.1,1.5-1.8c0.4-0.7,0.5-1.5,0.5-2.3c0-0.3,0-0.6,0-0.9
	c0-0.3-0.1-0.6-0.1-0.8l-1,0c-0.4,1.3-0.9,2.2-1.6,2.7c-0.6,0.5-1.6,0.8-2.8,0.8c-1.1,0-2.1-0.2-3.1-0.5c-1-0.3-2-0.7-2.9-1
	c-1-0.4-2-0.7-3-1c-1-0.3-2.1-0.5-3.3-0.5c-0.2,0-0.5,0-0.7,0c-0.3,0-0.5,0-0.7,0.1l0-0.2c0.6-0.4,1.2-0.8,1.8-1.1
	c0.7-0.3,1.4-0.6,2.1-0.9c0.6-0.2,4.5-2,6-2.6c2.8,0.1,5.7-0.3,8.3-1.2c9.8-3.1,15.6-12.9,16.3-22.8c0-0.6,0.1-1.2,0.1-1.8
	C53.5,18,52.7,14.1,50.9,10.6"/>
</svg>
