<?xml version="1.0" encoding="utf-8"?>
<!-- Generator: Adobe Illustrator 24.2.3, SVG Export Plug-In . SVG Version: 6.00 Build 0)  -->
<svg version="1.1" id="Layer_1" xmlns="http://www.w3.org/2000/svg" xmlns:xlink="http://www.w3.org/1999/xlink" x="0px" y="0px"
	 viewBox="0 0 200 62" style="enable-background:new 0 0 200 62;" xml:space="preserve">
<g>
	<g>
		<g>
			<path d="M41.9,11.9C41,10.3,40,8.7,38.7,7.5c-1.1-1.1-2.3-2.5-3.8-2.9c3.6,4.7,8.2,13.7,1.5,26.5c-5,9.5-18.4,14.8-24.2,11.6
				S7.1,30,12.8,20.8c2.8-4.5,6.6-8.7,10.8-10.9c1.7-0.9,3.4-1.4,5-1.5c2.2-0.1,4.4,0.7,5,2.5c0.5,1.4,0,4.4-2.2,5.1
				c-2.6,0.8-4.2,3-4.8,3.8c-0.7,0.8-3.9,6.6,0.7,8.3c4.6,1.8,9.8-6.4,8.8-12.7c-0.3-1.8-0.7-3.4-1.5-4.8c-0.8-1.4-2-2.4-3.4-3.1
				c-2.5-1.2-5.5-1.8-8.5-1.5C19,6.4,15,8,11.5,11.1c-2,1.7-3.8,3.8-5.2,6.2c-5.9,9.6-3.6,21.2,5.5,26.1c2,1.1,4.2,1.8,6.4,2.2
				c-2.2,1-5.6,2.6-5.6,2.6l-4.7,2.7c-0.6,0.3-1,0.6-1.3,0.8C6.3,51.8,6,52,5.9,52.1c-0.2,0.2-0.3,0.3-0.3,0.4
				c0,0.1-0.1,0.3-0.1,0.4c0,0.6,0.3,0.9,1,0.9c0.4,0,0.8-0.1,1-0.4c0.3-0.2,0.6-0.5,0.9-0.8c0.3-0.3,0.7-0.6,1.1-0.8
				c0.4-0.2,0.9-0.4,1.5-0.4c0.9,0,1.9,0.3,2.8,0.8c0.9,0.5,1.9,1.1,3,1.7c1,0.6,2.1,1.2,3.3,1.7c1.1,0.5,2.4,0.8,3.8,0.8
				c0.9,0,1.7-0.1,2.5-0.4c0.8-0.3,1.4-0.6,2-1.1c0.6-0.5,1-1,1.4-1.7c0.3-0.6,0.5-1.3,0.5-2.1c0-0.3,0-0.5,0-0.8
				c0-0.3-0.1-0.5-0.1-0.7l-0.9,0c-0.4,1.2-0.8,2-1.4,2.5c-0.6,0.5-1.4,0.7-2.6,0.7c-1,0-1.9-0.1-2.8-0.4c-0.9-0.3-1.8-0.6-2.7-1
				c-0.9-0.4-1.8-0.7-2.8-1c-0.9-0.3-2-0.4-3-0.4c-0.2,0-0.4,0-0.7,0c-0.3,0-0.5,0-0.6,0.1l0-0.1c0.5-0.4,1.1-0.7,1.7-1
				c0.6-0.3,1.3-0.6,1.9-0.8c0.5-0.2,4.2-1.9,5.5-2.4c2.6,0.1,5.2-0.3,7.6-1.1c9-2.9,14.3-11.8,14.9-20.9c0-0.6,0.1-1.1,0.1-1.7
				C44.3,18.6,43.5,15,41.9,11.9"/>
			<path d="M65.9,44c0,0.3-0.1,0.4-0.3,0.5c-2.4,0.2-4,0.7-4.9,1.3c-0.2,0.1-0.4,0.2-0.5,0.2c-0.3,0-0.4-0.1-0.4-0.3l0.2-2.5
				c-1.9,1.7-3.7,2.6-5.2,2.6c-1.8,0-3.2-0.5-4.2-1.5c-1-1-1.5-2.4-1.5-4.1l0-7.3c0-1.2-0.1-1.9-0.4-2.3c-0.3-0.4-0.9-0.6-1.8-0.6
				c-0.2,0-0.4,0-0.6,0c-0.2,0-0.3-0.2-0.3-0.5c0-0.4,0.1-0.6,0.3-0.6c1.5,0,3.5-0.3,5.9-0.8c0.2,0,0.3,0.2,0.3,0.5l-0.1,10.7
				c0,1.5,0.3,2.5,0.8,3.2c0.6,0.7,1.4,1,2.6,1c0.8,0,1.4-0.1,2-0.4c0.6-0.3,1.2-0.8,1.9-1.5l0-8.6c0-1.1-0.1-1.9-0.4-2.3
				c-0.3-0.4-0.9-0.6-1.8-0.6c-0.2,0-0.3,0-0.5,0c-0.2,0-0.3-0.2-0.3-0.5c0-0.4,0.1-0.6,0.3-0.6c1.5,0,3.5-0.3,5.9-0.8
				c0.2,0,0.4,0.2,0.3,0.5L63.4,41c0,0.9,0.1,1.5,0.4,1.8c0.3,0.3,0.8,0.5,1.8,0.7C65.8,43.4,65.9,43.6,65.9,44z"/>
			<path d="M83.2,34.2c0,0.4-0.2,0.5-0.7,0.5l-10.7-0.1c-0.1,0.7-0.1,1.4-0.1,2.2c0,2.1,0.5,3.7,1.5,4.8c1,1.1,2.4,1.7,4.2,1.7
				c0.9,0,1.9-0.2,2.8-0.7c0.9-0.5,1.7-1.1,2.3-1.9l0.1,0c0.1,0,0.2,0.1,0.3,0.2c0.1,0.1,0.2,0.3,0.2,0.5c0,0.3-0.4,0.8-1.3,1.7
				c-0.8,0.9-1.7,1.5-2.7,2c-1,0.5-2,0.7-3.1,0.7c-2.3,0-4.3-0.9-5.9-2.6c-1.6-1.7-2.4-3.8-2.4-6.3c0-2.5,0.8-4.7,2.4-6.5
				c1.6-1.8,3.6-2.6,6-2.6c2,0,3.7,0.7,5.1,2C82.5,31.2,83.2,32.6,83.2,34.2z M79.6,32.5c0-1-0.3-1.8-1-2.4c-0.7-0.6-1.5-1-2.6-1
				c-1,0-1.9,0.4-2.6,1.2c-0.7,0.8-1.2,1.9-1.5,3.3l5.4-0.1c0.8,0,1.4-0.1,1.7-0.2C79.4,33.1,79.6,32.9,79.6,32.5z"/>
			<path d="M104.4,36.9c0,2.4-0.9,4.5-2.6,6.3c-1.7,1.8-3.7,2.7-5.9,2.7c-1.2,0-2.4-0.3-3.6-0.8c-0.8-0.4-1.5-0.6-2.1-0.6
				c-1,0-1.6,0.4-1.9,1.2c-0.1,0.2-0.2,0.2-0.5,0.2c-0.3,0-0.5-0.1-0.5-0.3c0.1-1.1,0.2-2.4,0.2-3.9l0.1-19c0-1.1-0.1-1.7-0.4-2.1
				c-0.3-0.3-0.8-0.5-1.7-0.6c-0.2,0-0.3-0.2-0.3-0.5c0-0.4,0.1-0.6,0.3-0.6c2.3-0.6,4-1.3,4.9-2c0.2-0.2,0.4-0.2,0.5-0.2
				c0.4,0,0.5,0.1,0.5,0.3c-0.2,2.8-0.3,5.1-0.3,6.8l0,5.8c1.2-1.2,2.7-1.8,4.5-1.8c2.6,0,4.8,0.8,6.4,2.4
				C103.6,32,104.4,34.2,104.4,36.9z M100.5,37.1c0-2.4-0.5-4.3-1.4-5.6c-0.9-1.4-2.3-2-4-2.1c-0.9,0-1.8,0.3-2.7,1
				c-0.9,0.7-1.3,1.4-1.3,2.1l0,9c0,0.7,0.5,1.4,1.6,2.1c1,0.7,2,1.1,2.9,1.1c1.6,0,2.8-0.7,3.7-2.1C100,41.2,100.5,39.4,100.5,37.1
				z"/>
			<path d="M120.5,30c0,0.5-0.2,1-0.5,1.3c-0.3,0.4-0.7,0.5-1.2,0.5c-0.6,0-1.1-0.2-1.7-0.6c-0.4-0.3-0.8-0.5-1.1-0.5
				c-0.8,0-1.7,0.5-2.6,1.5l0,8.8c0,1.1,0.2,1.9,0.6,2.4c0.4,0.5,1.2,0.8,2.5,0.9c0.2,0,0.3,0.2,0.3,0.5c0,0.4-0.1,0.5-0.3,0.5
				c-0.5,0-1.3,0-2.3-0.1c-1.1-0.1-1.9-0.1-2.6-0.1c-0.6,0-1.4,0-2.4,0.1c-0.8,0.1-1.5,0.1-2,0.1c-0.2,0-0.3-0.2-0.3-0.5
				c0-0.3,0.1-0.5,0.3-0.5c1.1-0.1,1.9-0.4,2.2-0.8c0.3-0.4,0.5-1.2,0.5-2.5l0-7.2c0-1-0.1-1.7-0.4-2c-0.3-0.3-0.9-0.5-1.8-0.7
				c-0.2,0-0.3-0.2-0.3-0.5c0-0.3,0.1-0.5,0.3-0.5c1.3-0.3,2.4-0.7,3.2-1.1c0.8-0.4,1.4-0.7,1.6-1c0.2-0.2,0.3-0.2,0.5-0.2
				c0.4,0,0.5,0.1,0.5,0.3l-0.2,2.5c1-1,1.9-1.6,2.7-2c0.7-0.4,1.5-0.6,2.2-0.6c0.6,0,1.1,0.2,1.5,0.6C120.3,29,120.5,29.5,120.5,30
				z"/>
			<path d="M134.4,46c-0.7,0-1.4-0.2-1.9-0.5c-0.5-0.4-0.9-0.8-1.1-1.5c-1.4,1.4-3.2,2.1-5.5,2.1c-1.2,0-2.1-0.4-2.9-1.1
				c-0.7-0.7-1.1-1.6-1.1-2.7c0-2.7,3.2-4.8,9.5-6.4l0.1-3l0-0.1c0-0.9-0.2-1.7-0.7-2.2c-0.5-0.6-1.1-0.8-1.8-0.8
				c-0.8,0-1.4,0.2-2,0.5c-0.5,0.4-0.8,0.8-0.8,1.4c0,0.8-0.2,1.5-0.7,1.9c-0.4,0.5-1,0.7-1.7,0.7c-0.4,0-0.8-0.1-1-0.4
				c-0.3-0.2-0.4-0.6-0.4-1c0-1,0.9-2,2.7-3.1c1.8-1.1,3.5-1.6,5.1-1.6c1.4,0,2.5,0.4,3.4,1.3c0.9,0.8,1.3,2,1.3,3.4l0,0.2l-0.3,8.8
				l0,0.1c0,1.4,0.4,2.1,1.3,2.1c0.4,0,0.9-0.3,1.5-0.8l0.1,0c0.1,0,0.2,0.1,0.3,0.2c0.1,0.1,0.1,0.3,0.1,0.4c0,0.4-0.4,0.8-1.2,1.4
				C136.1,45.7,135.3,46,134.4,46z M131.4,37.2c-3.8,0.8-5.7,2.3-5.7,4.2c0,1.9,0.7,2.8,2.1,2.8c0.7,0,1.4-0.2,2-0.5
				c0.7-0.3,1.1-0.8,1.4-1.3L131.4,37.2z"/>
			<path d="M154.3,31.3c0,1.1-0.5,1.6-1.6,1.6c-0.5,0-0.8-0.1-1.1-0.3c-0.3-0.2-0.6-0.6-0.9-1.3c-0.3-0.8-0.7-1.3-1.1-1.5
				c-0.4-0.2-0.9-0.4-1.5-0.4c-1.6,0-2.8,0.6-3.6,1.9c-0.8,1.3-1.3,3.2-1.3,5.7c0,2.1,0.5,3.8,1.5,5.1c1,1.3,2.4,1.9,4.2,1.9
				c2,0,3.5-0.6,4.7-1.8l0.1,0c0.1,0,0.2,0.1,0.3,0.2c0.1,0.2,0.2,0.3,0.2,0.5c0,0.3-0.4,0.7-1.1,1.3c-0.8,0.6-1.6,1.1-2.5,1.4
				c-0.9,0.3-1.9,0.5-2.9,0.5c-2.3,0-4.3-0.9-6-2.6c-1.6-1.7-2.5-3.9-2.5-6.5c0-2.6,0.9-4.7,2.6-6.4c1.7-1.7,3.8-2.5,6.2-2.5
				c1.8,0,3.2,0.3,4.5,0.9C153.7,29.7,154.3,30.5,154.3,31.3z"/>
			<path d="M177.4,45.2c0,0.4-0.1,0.5-0.3,0.5c-0.5,0-1.2,0-1.9-0.1c-0.8-0.1-1.6-0.1-2.2-0.1c-0.7,0-1.4,0-2.3,0.1
				c-0.8,0.1-1.4,0.1-1.9,0.1c-0.2,0-0.3-0.2-0.3-0.5c0-0.3,0.1-0.5,0.3-0.5c0.9-0.1,1.5-0.4,1.8-0.8c0.3-0.4,0.4-1.2,0.4-2.5l0-6.5
				c0-2.8-1.3-4.2-3.8-4.2c-1.6,0-3,0.6-4.2,1.9l0,8.8c0,1.2,0.2,2,0.5,2.4c0.3,0.5,1,0.7,2,0.9c0.2,0,0.3,0.2,0.3,0.5
				c0,0.4-0.1,0.5-0.3,0.5c-0.5,0-1.2,0-2.1-0.1c-1-0.1-1.8-0.1-2.4-0.1c-0.6,0-1.4,0-2.2,0.1c-0.7,0.1-1.4,0.1-1.9,0.1
				c-0.2,0-0.3-0.2-0.3-0.5c0-0.3,0.1-0.5,0.3-0.5c1.1-0.1,1.8-0.4,2.1-0.8c0.3-0.4,0.5-1.2,0.5-2.5l0.1-18.1c0-1.1-0.1-1.7-0.4-2.1
				c-0.3-0.3-0.8-0.5-1.8-0.7c-0.2,0-0.3-0.2-0.3-0.5c0-0.3,0.1-0.5,0.3-0.5c2.2-0.5,3.9-1.2,4.9-2c0.2-0.2,0.4-0.2,0.5-0.2
				c0.4,0,0.5,0.1,0.5,0.3c-0.2,2.1-0.3,4.4-0.3,6.8l0,6.6c1.9-1.8,3.7-2.6,5.5-2.6c1.9,0,3.3,0.5,4.4,1.5c1.1,1,1.6,2.4,1.6,4.1
				l0,7.5c0,1.3,0.2,2.1,0.5,2.5c0.3,0.4,1,0.7,2.2,0.8C177.3,44.7,177.4,44.9,177.4,45.2z"/>
			<path d="M197.1,37.6c0,2.6-0.9,4.7-2.6,6.4c-1.7,1.7-3.9,2.5-6.6,2.5c-2.7,0-4.9-0.9-6.5-2.5c-1.7-1.7-2.5-3.8-2.5-6.4
				c0-2.6,0.9-4.8,2.6-6.5c1.7-1.7,3.9-2.6,6.6-2.6c2.7,0,4.8,0.9,6.5,2.6C196.3,32.8,197.1,34.9,197.1,37.6z M193.1,37.5
				c0-2.4-0.4-4.3-1.3-5.7c-0.9-1.4-2.2-2.1-3.8-2.2c-1.6,0-2.8,0.7-3.8,2.1c-0.9,1.4-1.4,3.3-1.4,5.7c0,2.4,0.4,4.2,1.3,5.6
				c0.9,1.4,2.2,2.1,3.8,2.1c1.6,0,2.9-0.7,3.8-2C192.7,41.8,193.1,39.9,193.1,37.5z"/>
		</g>
	</g>
</g>
</svg>
