<?xml version="1.0" standalone="no"?>
<!DOCTYPE svg PUBLIC "-//W3C//DTD SVG 20010904//EN"
 "http://www.w3.org/TR/2001/REC-SVG-20010904/DTD/svg10.dtd">
<svg version="1.0" xmlns="http://www.w3.org/2000/svg"
 width="700.000000pt" height="700.000000pt" viewBox="0 0 700.000000 700.000000"
 preserveAspectRatio="xMidYMid meet">
<metadata>
Created by potrace 1.14, written by Peter Selinger 2001-2017
</metadata>
<g transform="translate(0.000000,700.000000) scale(0.100000,-0.100000)"
fill="#000000" stroke="none">
<path d="M4900 6684 c0 -3 19 -31 43 -62 39 -52 85 -120 112 -164 312 -516
439 -941 437 -1473 0 -197 -7 -279 -43 -485 -27 -156 -102 -439 -139 -525 -5
-11 -30 -74 -56 -140 -102 -263 -260 -556 -386 -720 -111 -143 -141 -178 -268
-305 -339 -342 -781 -619 -1241 -778 -130 -45 -306 -94 -384 -106 -16 -3 -46
-8 -65 -11 -19 -3 -60 -9 -90 -14 -53 -9 -409 -8 -440 1 -8 3 -33 8 -55 12
-251 48 -486 227 -603 461 -39 78 -87 217 -97 280 -5 28 -10 57 -11 65 -25
117 -24 420 1 565 3 17 10 57 16 90 56 327 208 735 407 1095 97 177 108 195
210 350 482 737 1112 1256 1672 1376 118 25 369 26 459 0 216 -60 352 -189
379 -359 26 -164 -35 -359 -144 -464 -42 -41 -130 -93 -155 -93 -23 0 -154
-64 -224 -109 -72 -47 -229 -197 -330 -314 -133 -154 -233 -410 -240 -611 -8
-223 94 -378 300 -456 88 -33 204 -32 309 4 306 104 605 499 720 953 44 172
51 229 51 418 0 136 -4 179 -26 288 -6 29 -13 65 -16 81 -22 127 -116 370
-180 464 -87 129 -246 264 -408 345 -74 37 -316 122 -375 132 -19 3 -42 8 -50
10 -8 2 -28 7 -45 10 -16 2 -39 7 -50 9 -99 20 -357 26 -490 12 -329 -34 -652
-140 -943 -308 -46 -26 -88 -48 -93 -48 -5 0 -9 -4 -9 -10 0 -5 -4 -10 -9 -10
-25 0 -264 -179 -392 -293 -75 -67 -187 -181 -284 -291 -86 -97 -279 -363
-338 -466 -109 -192 -161 -302 -227 -482 -30 -81 -93 -309 -104 -378 -3 -19
-8 -46 -11 -60 -34 -182 -39 -527 -9 -720 66 -426 235 -794 503 -1097 239
-269 543 -467 916 -596 137 -47 220 -70 353 -96 24 -5 45 -11 47 -13 3 -3 -28
-20 -68 -38 -39 -18 -123 -57 -186 -87 -62 -29 -115 -53 -116 -53 -3 0 -147
-67 -270 -126 -38 -18 -104 -53 -146 -76 -43 -24 -178 -99 -300 -167 -123 -68
-243 -135 -267 -148 -156 -87 -205 -146 -196 -237 6 -59 36 -85 106 -93 57 -7
105 14 172 74 104 94 110 99 162 136 86 62 132 77 232 79 166 2 240 -29 612
-252 386 -232 611 -335 805 -366 71 -12 275 -10 350 3 149 26 334 122 428 222
65 70 124 164 146 234 19 63 28 240 16 321 l-7 45 -57 -2 c-56 -2 -56 -2 -69
-41 -46 -141 -139 -261 -237 -305 -136 -61 -352 -61 -560 0 -38 11 -77 22 -85
24 -22 5 -271 94 -295 104 -33 16 -224 78 -325 106 -145 41 -241 54 -393 52
-75 -1 -137 2 -137 6 0 10 141 100 205 131 69 33 144 66 150 66 3 0 24 9 48
19 23 11 130 57 237 104 107 47 220 96 250 110 200 92 210 94 405 101 99 3
191 8 205 10 14 3 48 7 75 10 48 6 64 9 130 21 17 3 44 8 60 11 94 17 393 110
485 151 317 142 539 292 771 523 362 358 616 801 764 1329 37 134 77 333 91
449 3 31 8 66 10 77 18 97 26 544 11 685 -21 203 -64 409 -124 595 -63 194
-169 408 -294 595 -81 123 -145 199 -272 330 -174 178 -259 246 -365 291 -45
20 -62 23 -62 13z"/>
</g>
</svg>
